<svg width="24" height="24" viewBox="0 0 24 24" fill="none" xmlns="http://www.w3.org/2000/svg">
<path opacity="0.12" d="M9.60001 3.59985L7.20001 5.39985H5.40001L3.60001 7.79985L4.80001 10.7999L3.60001 13.1999L4.20001 16.1999L5.40001 19.7999L8.40001 20.3999L12 18.5999L16.2 20.3999L19.2 19.1999V16.1999L20.4 14.9999L19.8 11.3999L20.4 7.79985L19.2 5.99985L16.2 5.39985L15.6 4.19985L13.8 3.59985L12 4.79985L9.60001 3.59985Z" fill="#67738C"/>
<path d="M7.41855 12.7627C6.40581 12.7627 5.43455 12.3604 4.71843 11.6443C4.00232 10.9282 3.60001 9.95693 3.60001 8.94419C3.60001 7.93145 4.00232 6.96019 4.71843 6.24407C5.43455 5.52796 6.40581 5.12565 7.41855 5.12565C7.46514 5.12565 7.50867 5.13787 7.55449 5.13939C7.7311 4.62808 8.08332 4.19598 8.54853 3.91991C9.01374 3.64385 9.56178 3.54172 10.0952 3.6317C10.6286 3.72167 11.1128 3.99791 11.4618 4.41129C11.8107 4.82467 12.0017 5.3484 12.0008 5.88936V6.65307C12.0008 7.26071 11.7594 7.84347 11.3297 8.27314C10.9001 8.70281 10.3173 8.94419 9.70968 8.94419H8.94597" stroke="#67738C" stroke-width="2" stroke-linecap="round" stroke-linejoin="round"/>
<path d="M19.5174 15.6741C19.5942 15.9705 19.6347 16.2752 19.638 16.5814C19.638 17.5941 19.2357 18.5654 18.5196 19.2815C17.8035 19.9976 16.8322 20.3999 15.8195 20.3999C14.8068 20.3999 13.8355 19.9976 13.1194 19.2815C12.4033 18.5654 12.0009 17.5941 12.0009 16.5814C12.0009 17.5941 11.5986 18.5654 10.8825 19.2815C10.1664 19.9976 9.19515 20.3999 8.1824 20.3999C7.16966 20.3999 6.1984 19.9976 5.48229 19.2815C4.76617 18.5654 4.36386 17.5941 4.36386 16.5814C4.36717 16.2752 4.40769 15.9705 4.48453 15.6741" stroke="#67738C" stroke-width="2" stroke-linecap="round" stroke-linejoin="round"/>
<path d="M4.49828 11.3777C4.21372 11.6586 3.98779 11.9932 3.83362 12.3621C3.67944 12.731 3.60008 13.1269 3.60016 13.5268C3.60016 14.337 3.92201 15.114 4.4949 15.6869C5.06779 16.2597 5.8448 16.5816 6.65499 16.5816H7.4187" stroke="#67738C" stroke-width="2" stroke-linecap="round" stroke-linejoin="round"/>
<path d="M8.18244 9.70808C8.60422 9.70808 8.94615 9.36616 8.94615 8.94437C8.94615 8.52259 8.60422 8.18066 8.18244 8.18066C7.76066 8.18066 7.41873 8.52259 7.41873 8.94437C7.41873 9.36616 7.76066 9.70808 8.18244 9.70808Z" fill="#67738C" stroke="#67738C" stroke-width="2" stroke-linecap="round" stroke-linejoin="round"/>
<path d="M8.18244 17.3453C8.60422 17.3453 8.94615 17.0034 8.94615 16.5816C8.94615 16.1598 8.60422 15.8179 8.18244 15.8179C7.76066 15.8179 7.41873 16.1598 7.41873 16.5816C7.41873 17.0034 7.76066 17.3453 8.18244 17.3453Z" fill="#67738C" stroke="#67738C" stroke-width="2" stroke-linecap="round" stroke-linejoin="round"/>
<path d="M19.5036 11.3777C19.7881 11.6586 20.014 11.9932 20.1682 12.3621C20.3224 12.731 20.4017 13.1269 20.4017 13.5268C20.4017 14.337 20.0798 15.114 19.5069 15.6869C18.934 16.2597 18.157 16.5816 17.3468 16.5816H16.5831" stroke="#67738C" stroke-width="2" stroke-linecap="round" stroke-linejoin="round"/>
<path d="M12.001 16.5817V13.5269" stroke="#67738C" stroke-width="2" stroke-linecap="round" stroke-linejoin="round"/>
<path d="M15.8195 17.3453C16.2413 17.3453 16.5832 17.0034 16.5832 16.5816C16.5832 16.1598 16.2413 15.8179 15.8195 15.8179C15.3977 15.8179 15.0558 16.1598 15.0558 16.5816C15.0558 17.0034 15.3977 17.3453 15.8195 17.3453Z" fill="#67738C" stroke="#67738C" stroke-width="2" stroke-linecap="round" stroke-linejoin="round"/>
<path d="M16.5832 12.7627C17.596 12.7627 18.5672 12.3604 19.2834 11.6443C19.9995 10.9282 20.4018 9.95693 20.4018 8.94419C20.4018 7.93145 19.9995 6.96019 19.2834 6.24407C18.5672 5.52796 17.596 5.12565 16.5832 5.12565C16.5366 5.12565 16.4931 5.13787 16.4473 5.13939C16.2707 4.62808 15.9185 4.19598 15.4533 3.91991C14.988 3.64385 14.44 3.54172 13.9066 3.6317C13.3732 3.72167 12.8889 3.99791 12.54 4.41129C12.1911 4.82467 12.0001 5.3484 12.001 5.88936V6.65307C12.001 7.26071 12.2424 7.84347 12.672 8.27314C13.1017 8.70281 13.6845 8.94419 14.2921 8.94419H15.0558" stroke="#67738C" stroke-width="2" stroke-linecap="round" stroke-linejoin="round"/>
<path d="M15.8195 9.70808C16.2413 9.70808 16.5832 9.36616 16.5832 8.94437C16.5832 8.52259 16.2413 8.18066 15.8195 8.18066C15.3977 8.18066 15.0558 8.52259 15.0558 8.94437C15.0558 9.36616 15.3977 9.70808 15.8195 9.70808Z" fill="#67738C" stroke="#67738C" stroke-width="2" stroke-linecap="round" stroke-linejoin="round"/>
<path d="M12.001 13.5267C12.4227 13.5267 12.7647 13.1848 12.7647 12.763C12.7647 12.3412 12.4227 11.9993 12.001 11.9993C11.5792 11.9993 11.2372 12.3412 11.2372 12.763C11.2372 13.1848 11.5792 13.5267 12.001 13.5267Z" fill="#67738C" stroke="#67738C" stroke-width="2" stroke-linecap="round" stroke-linejoin="round"/>
</svg>
