<svg width="25" height="24" viewBox="0 0 25 24" fill="none" xmlns="http://www.w3.org/2000/svg">
<g clip-path="url(#clip0_534_57705)">
<path d="M4.95117 21.2022L6.04718 16.8182C6.10126 16.6018 6.12829 16.4937 6.17178 16.3928C6.21038 16.3033 6.25855 16.2182 6.31546 16.1391C6.37956 16.0499 6.45839 15.9711 6.61605 15.8134L16.1228 6.30664L18.3174 8.50125C18.8527 9.03654 19.1204 9.30419 19.2207 9.61282C19.3089 9.88431 19.3089 10.1767 19.2207 10.4482C19.1204 10.7569 18.8527 11.0245 18.3174 11.5598L10.3399 19.5373C10.1823 19.695 10.1034 19.7738 10.0143 19.8379C9.93511 19.8948 9.85003 19.943 9.7605 19.9816C9.65966 20.0251 9.55151 20.0521 9.3352 20.1062L4.95117 21.2022Z" fill="black" fill-opacity="0.08"/>
<path d="M4.95117 21.2022L6.04718 16.8182C6.10126 16.6018 6.12829 16.4937 6.17178 16.3928C6.21038 16.3033 6.25855 16.2182 6.31546 16.1391C6.37956 16.0499 6.45839 15.9711 6.61605 15.8134L16.1228 6.30664L18.3174 8.50125C18.8527 9.03654 19.1204 9.30419 19.2207 9.61282C19.3089 9.88431 19.3089 10.1767 19.2207 10.4482C19.1204 10.7569 18.8527 11.0245 18.3174 11.5598L10.3399 19.5373C10.1823 19.695 10.1034 19.7738 10.0143 19.8379C9.93511 19.8948 9.85003 19.943 9.7605 19.9816C9.65966 20.0251 9.55151 20.0521 9.3352 20.1062L4.95117 21.2022Z" stroke="#67738C" stroke-width="2.02756" stroke-linecap="round" stroke-linejoin="round"/>
<path d="M17.9839 8.16858L20.7992 10.9838C21.3345 11.5191 21.6021 11.7868 21.7024 12.0954C21.7906 12.3669 21.7906 12.6593 21.7024 12.9308C21.6021 13.2394 21.3345 13.5071 20.7992 14.0424L17.3633 17.4783" stroke="#67738C" stroke-width="2.02756" stroke-linecap="round" stroke-linejoin="round"/>
<path d="M18.9913 3.82238C19.9594 2.85434 21.5289 2.85434 22.4969 3.82238C23.465 4.79043 23.465 6.35995 22.4969 7.32799L22.4771 7.3478L18.9715 3.84219L18.9913 3.82238Z" fill="#67738C" stroke="#67738C" stroke-width="2.02756" stroke-linecap="round"/>
</g>
<defs>
<clipPath id="clip0_534_57705">
<rect width="24" height="24" fill="white" transform="translate(0.25 0.000244141)"/>
</clipPath>
</defs>
</svg>
