<svg width="20" height="21" viewBox="0 0 20 21" fill="none" xmlns="http://www.w3.org/2000/svg">
<path opacity="0.12" d="M2 6.7C2 5.5799 2 5.01984 2.21799 4.59202C2.40973 4.21569 2.71569 3.90973 3.09202 3.71799C3.51984 3.5 4.0799 3.5 5.2 3.5H14.8C15.9201 3.5 16.4802 3.5 16.908 3.71799C17.2843 3.90973 17.5903 4.21569 17.782 4.59202C18 5.01984 18 5.5799 18 6.7V14.3C18 15.4201 18 15.9802 17.782 16.408C17.5903 16.7843 17.2843 17.0903 16.908 17.282C16.4802 17.5 15.9201 17.5 14.8 17.5H5.2C4.0799 17.5 3.51984 17.5 3.09202 17.282C2.71569 17.0903 2.40973 16.7843 2.21799 16.408C2 15.9802 2 15.4201 2 14.3V6.7Z" fill="#67738C"/>
<path fill-rule="evenodd" clip-rule="evenodd" d="M14.8304 2.75H5.16957C4.63541 2.74999 4.18956 2.74998 3.82533 2.77974C3.44545 2.81078 3.08879 2.87789 2.75153 3.04973C2.23408 3.31338 1.81338 3.73408 1.54973 4.25153C1.37789 4.58879 1.31078 4.94545 1.27974 5.32533C1.24998 5.68956 1.24999 6.13541 1.25 6.66957V14.3304C1.24999 14.8646 1.24998 15.3104 1.27974 15.6747C1.31078 16.0546 1.37789 16.4112 1.54973 16.7485C1.81338 17.2659 2.23408 17.6866 2.75153 17.9503C3.08879 18.1221 3.44545 18.1892 3.82533 18.2203C4.18956 18.25 4.6354 18.25 5.16955 18.25H14.8305C15.3646 18.25 15.8104 18.25 16.1747 18.2203C16.5546 18.1892 16.9112 18.1221 17.2485 17.9503C17.7659 17.6866 18.1866 17.2659 18.4503 16.7485C18.6221 16.4112 18.6892 16.0546 18.7203 15.6747C18.75 15.3104 18.75 14.8646 18.75 14.3305V6.66955C18.75 6.1354 18.75 5.68956 18.7203 5.32533C18.6892 4.94545 18.6221 4.58879 18.4503 4.25153C18.1866 3.73408 17.7659 3.31338 17.2485 3.04973C16.9112 2.87789 16.5546 2.81078 16.1747 2.77974C15.8104 2.74998 15.3646 2.74999 14.8304 2.75ZM3.94748 4.27476C3.66036 4.29822 3.52307 4.3401 3.43251 4.38624C3.19731 4.50608 3.00608 4.69731 2.88624 4.93251C2.8401 5.02307 2.79822 5.16036 2.77476 5.44748C2.75058 5.74336 2.75 6.12757 2.75 6.7V14.3C2.75 14.8724 2.75058 15.2566 2.77476 15.5525C2.79822 15.8396 2.8401 15.9769 2.88624 16.0675C3.00608 16.3027 3.19731 16.4939 3.43251 16.6138C3.52307 16.6599 3.66036 16.7018 3.94748 16.7252C4.24336 16.7494 4.62757 16.75 5.2 16.75H6.25V4.25H5.2C4.62757 4.25 4.24336 4.25058 3.94748 4.27476ZM7.75 16.75V4.25H12.25V16.75H7.75ZM14.8 16.75C15.3724 16.75 15.7566 16.7494 16.0525 16.7252C16.3396 16.7018 16.4769 16.6599 16.5675 16.6138C16.8027 16.4939 16.9939 16.3027 17.1138 16.0675C17.1599 15.9769 17.2018 15.8396 17.2252 15.5525C17.2494 15.2566 17.25 14.8724 17.25 14.3V6.7C17.25 6.12757 17.2494 5.74336 17.2252 5.44748C17.2018 5.16036 17.1599 5.02307 17.1138 4.93251C16.9939 4.69731 16.8027 4.50608 16.5675 4.38624C16.4769 4.3401 16.3396 4.29822 16.0525 4.27476C15.7566 4.25058 15.3724 4.25 14.8 4.25H13.75V16.75H14.8Z" fill="#67738C"/>
</svg>
