<?xml version="1.0" encoding="utf-8"?>
<!-- Generator: Adobe Illustrator 27.5.0, SVG Export Plug-In . SVG Version: 6.00 Build 0)  -->
<svg version="1.1" xmlns="http://www.w3.org/2000/svg" xmlns:xlink="http://www.w3.org/1999/xlink" x="0px" y="0px"
	 viewBox="0 0 500 500" style="enable-background:new 0 0 500 500;" xml:space="preserve">
<g id="background">
	<rect style="fill:#FFFFFF;" width="500" height="500"/>
</g>
<g id="objects">
	<g>
		<path style="fill:#FFDD3E;" d="M104.571,99.623c0-3.505,0-26.785,0-26.785l-1.752-2.503c0,0,2.253-18.774-37.048-18.774
			c-39.301,0-37.048,18.774-37.048,18.774l-1.752,2.503c0,0,0,23.28,0,26.785c0,3.505,1.001,7.009,1.001,7.009v72.344l-1.001,2.503
			v28.036c1.438,1.078,1.585,10.8,1.554,16.2c-0.011,1.975,1.584,3.576,3.559,3.576H65.77H97.8c2.874,0,5.208-2.319,5.214-5.193
			c0.011-5.525,0.254-13.605,1.557-14.582V181.48l-1.001-2.503v-72.344C103.569,106.632,104.571,103.128,104.571,99.623z"/>
		<path style="fill:#FFDD3E;" d="M33.796,65.01c-0.169,0.972-0.204,1.96-0.256,2.943l-0.091,2.954
			c-0.044,1.969-0.062,3.939-0.052,5.909c-0.038,3.938,0.053,7.879,0.08,11.818l0.414,23.634l-1.814-1.814l16.847-0.234
			l16.847-0.083l16.846,0.081l16.847,0.231l-1.818,1.818l0.413-23.634c0.026-3.938,0.119-7.88,0.082-11.818
			c0.009-1.971-0.007-3.94-0.051-5.909l-0.091-2.954c-0.051-0.983-0.086-1.971-0.255-2.943c0.291,0.947,0.452,1.928,0.629,2.902
			c0.169,0.976,0.322,1.955,0.452,2.937c0.251,1.963,0.479,3.931,0.673,5.9c0.357,3.94,0.687,7.884,0.894,11.831
			c0.216,3.947,0.443,7.894,0.556,11.843l0.334,11.846l0.051,1.793l-1.869,0.026l-16.847,0.231l-16.846,0.081l-16.847-0.083
			l-16.847-0.234l-1.865-0.026l0.051-1.788l0.335-11.846c0.112-3.948,0.342-7.896,0.555-11.843
			c0.209-3.947,0.536-7.891,0.892-11.831c0.195-1.969,0.422-3.936,0.672-5.9c0.13-0.982,0.283-1.961,0.451-2.937
			C33.345,66.938,33.506,65.957,33.796,65.01z"/>
		<path style="fill:#FFDD3E;" d="M65.871,222.741l2.799-0.183c0.933-0.062,1.857-0.197,2.783-0.277
			c0.926-0.074,1.845-0.248,2.765-0.367c0.922-0.114,1.827-0.336,2.739-0.498c0.91-0.176,1.8-0.434,2.699-0.646
			c0.882-0.27,1.771-0.519,2.635-0.831c1.734-0.613,3.401-1.372,4.999-2.231c0.774-0.472,1.56-0.923,2.279-1.467
			c0.375-0.251,0.727-0.53,1.067-0.822c0.348-0.283,0.695-0.566,1.009-0.885c0.656-0.606,1.259-1.264,1.809-1.958
			c0.555-0.69,1.07-1.413,1.503-2.181c0.892-1.522,1.542-3.177,1.921-4.894c0.19-0.857,0.328-1.727,0.385-2.6
			c0.063-0.853,0.049-1.789-0.037-2.535l0.972,1.021l-16.354-2.889l-16.335-2.991h0.521l-16.335,2.993l-16.354,2.891l0.974-1.023
			c-0.083,0.745-0.099,1.68-0.036,2.533c0.057,0.872,0.194,1.742,0.384,2.598c0.378,1.716,1.028,3.371,1.919,4.892
			c0.434,0.768,0.946,1.491,1.503,2.179c0.55,0.694,1.153,1.351,1.808,1.958c0.313,0.319,0.66,0.602,1.008,0.885
			c0.34,0.292,0.692,0.571,1.066,0.822c0.718,0.544,1.503,0.996,2.277,1.468c1.597,0.86,3.264,1.618,4.997,2.232
			c0.863,0.312,1.752,0.562,2.634,0.832c0.898,0.212,1.788,0.47,2.697,0.646c0.911,0.162,1.815,0.384,2.738,0.499
			c0.921,0.119,1.837,0.293,2.765,0.368c0.927,0.079,1.852,0.215,2.783,0.277l2.797,0.184c-1.868,0.05-3.741,0.101-5.616,0.02
			c-0.939-0.014-1.871-0.127-2.81-0.186c-0.939-0.055-1.868-0.218-2.804-0.322c-0.935-0.118-1.859-0.32-2.791-0.477
			c-0.92-0.216-1.849-0.413-2.761-0.676c-0.91-0.274-1.826-0.535-2.714-0.891c-0.904-0.313-1.762-0.745-2.637-1.141
			c-0.845-0.459-1.702-0.902-2.503-1.449c-0.414-0.251-0.808-0.534-1.192-0.832c-0.391-0.289-0.781-0.579-1.141-0.91
			c-1.487-1.261-2.8-2.755-3.846-4.428c-1.055-1.667-1.85-3.504-2.343-5.422c-0.248-0.958-0.435-1.934-0.535-2.923
			c-0.096-1.007-0.146-1.948-0.037-3.062l0.083-0.848l0.892-0.175l16.296-3.202l16.315-3.1l0.261-0.049l0.261,0.049l16.314,3.102
			l16.295,3.204l0.892,0.175l0.081,0.846c0.106,1.114,0.058,2.055-0.038,3.062c-0.1,0.99-0.287,1.965-0.535,2.923
			c-0.493,1.918-1.289,3.755-2.344,5.422c-1.046,1.673-2.362,3.165-3.848,4.427c-0.36,0.331-0.75,0.621-1.141,0.91
			c-0.384,0.298-0.779,0.58-1.193,0.832c-0.801,0.547-1.659,0.99-2.504,1.449c-0.875,0.396-1.733,0.83-2.638,1.14
			c-0.888,0.357-1.805,0.617-2.715,0.891c-0.912,0.263-1.841,0.46-2.762,0.676c-0.933,0.157-1.856,0.359-2.792,0.477
			c-0.937,0.104-1.865,0.268-2.805,0.322c-0.939,0.059-1.87,0.173-2.812,0.187C69.608,222.842,67.742,222.791,65.871,222.741z"/>
		<path style="fill:#9AD4ED;" d="M65.77,101.787c-22.8,0-33.693,10.481-33.693,10.481v87.937
			c14.745,5.862,33.693,5.152,33.693,5.152s18.948,0.711,33.693-5.152v-87.937C99.463,112.268,88.57,101.787,65.77,101.787z"/>
		<g>
			<path style="fill:#F2F2F2;" d="M32.077,146.721v8.642l51.242-51.242c-2.146-0.61-4.525-1.13-7.111-1.532L32.077,146.721z"/>
			<path style="fill:#F2F2F2;" d="M89.957,106.496c-0.906-0.396-1.87-0.786-2.909-1.165l-54.972,54.972v4.074L89.957,106.496z"/>
			<path style="fill:#F2F2F2;" d="M99.463,151.437v-8.642L39.65,202.608c2.417,0.605,4.841,1.081,7.189,1.454L99.463,151.437z"/>
			<path style="fill:#F2F2F2;" d="M99.463,160.449v-4.074l-48.278,48.278c1.29,0.147,2.532,0.266,3.713,0.361L99.463,160.449z"/>
		</g>
		<path style="fill:#FFDD3E;" d="M92.298,134.119l7.332-18.476l-0.167-3.375l-1.516-1.241l-8.268,19.775
			c0,0-6.617-4.264-23.909-4.264s-23.909,4.264-23.909,4.264l-8.269-19.775l-1.516,1.241l-0.167,3.375l7.332,18.476v41.215
			l-7.332,14.449l0.167,10.422l2.437,0.896l6.86-14.508h48.792l6.86,14.508l2.437-0.896l0.167-10.422l-7.332-14.449V134.119z"/>
		<path style="fill:#C1272D;" d="M34.167,229.292c0,0-0.819-2.196,5.051-2.196s5.188,2.196,5.188,2.196H34.167z"/>
		<path style="fill:#C1272D;" d="M97.373,229.292c0,0,0.819-2.196-5.051-2.196c-5.87,0-5.188,2.196-5.188,2.196H97.373z"/>
		<path style="fill:#FFDD3E;" d="M33.592,111.027c0,0-11.677-1.693-11.677,5.525h11.677V111.027z"/>
		<path style="fill:#FFDD3E;" d="M97.948,111.027c0,0,11.677-1.693,11.677,5.525H97.948V111.027z"/>
		<path style="fill:#FFDD3E;" d="M33.98,64.714c0,0,0.117-0.238,0.44-0.614c0.317-0.378,0.826-0.907,1.574-1.455
			c0.741-0.555,1.695-1.164,2.854-1.732c1.149-0.59,2.501-1.147,4.013-1.631c1.51-0.486,3.171-0.945,4.95-1.309
			c0.886-0.209,1.802-0.382,2.744-0.525c0.94-0.155,1.902-0.323,2.887-0.409c0.984-0.103,1.984-0.209,2.997-0.315
			c1.015-0.065,2.042-0.131,3.078-0.197c2.071-0.156,4.178-0.135,6.284-0.211c2.126,0.073,4.188,0.054,6.276,0.209
			c1.038,0.066,2.068,0.132,3.086,0.197c1.012,0.107,2.013,0.212,2.997,0.315c0.985,0.088,1.947,0.252,2.887,0.408
			c0.942,0.144,1.859,0.316,2.744,0.526c1.779,0.364,3.44,0.823,4.95,1.31c1.512,0.484,2.865,1.04,4.013,1.631
			c1.159,0.568,2.114,1.177,2.854,1.733c0.748,0.548,1.257,1.077,1.574,1.455c0.323,0.376,0.44,0.614,0.44,0.614
			s-0.141-0.225-0.497-0.562c-0.346-0.345-0.908-0.793-1.675-1.28c-0.766-0.487-1.741-1.011-2.917-1.479
			c-1.166-0.486-2.526-0.925-4.024-1.346c-1.501-0.407-3.149-0.781-4.914-1.057c-0.877-0.165-1.786-0.292-2.72-0.391
			c-0.934-0.095-1.876-0.274-2.852-0.336c-0.972-0.087-1.959-0.176-2.959-0.265c-1.001-0.049-2.015-0.098-3.036-0.147
			c-2.03-0.124-4.164-0.068-6.228-0.115c-2.083,0.044-4.173-0.01-6.22,0.113c-1.024,0.05-2.041,0.099-3.045,0.148
			c-1,0.09-1.988,0.178-2.959,0.265c-0.975,0.064-1.918,0.238-2.852,0.334c-0.935,0.098-1.843,0.226-2.72,0.391
			c-1.765,0.276-3.413,0.651-4.914,1.058c-1.497,0.421-2.858,0.859-4.024,1.346c-1.176,0.468-2.151,0.992-2.917,1.479
			c-0.766,0.487-1.328,0.936-1.675,1.281C34.12,64.489,33.98,64.714,33.98,64.714z"/>
		<path style="fill:#F2F2F2;" d="M33.158,60.288c0,0-3.194,6.143,0.638,6.143s8.989-7.734,14.424-7.734
			c5.435,0,4.237-5.634-0.495-5.395C42.994,53.54,36.492,56.931,33.158,60.288z"/>
		<path style="fill:#F2F2F2;" d="M98.382,60.288c0,0,3.194,6.143-0.638,6.143s-8.989-7.734-14.424-7.734s-4.237-5.634,0.495-5.395
			C88.546,53.54,95.049,56.931,98.382,60.288z"/>
	</g>
	<g>
		<path style="fill:#8CC63F;" d="M324.31,96.747c0-3.505,0-26.785,0-26.785l-1.752-2.503c0,0,2.253-18.774-37.048-18.774
			c-39.301,0-37.048,18.774-37.048,18.774l-1.752,2.503c0,0,0,23.28,0,26.785c0,3.505,1.001,7.009,1.001,7.009V176.1l-1.001,2.503
			v28.036c0.376,0.282,0.663,1.153,0.882,2.383c1.809,10.143,10.863,17.393,21.167,17.393h16.751h18.676
			c9.675,0,17.734-7.177,19.138-16.749c0.23-1.567,0.548-2.698,0.986-3.026v-28.036l-1.001-2.503v-72.344
			C323.308,103.756,324.31,100.252,324.31,96.747z"/>
		<g>
			<path style="fill:#C1272D;" d="M263.181,224.22c-1.401,0-2.337,0.18-2.976,0.433c2.291,0.977,4.77,1.568,7.348,1.71
				C267.602,226.042,267.684,224.22,263.181,224.22z"/>
			<path style="fill:#C1272D;" d="M307.838,224.22c-4.936,0-4.362,2.196-4.362,2.196h0.71c2.564,0,5.009-0.517,7.252-1.436
				C310.854,224.564,309.789,224.22,307.838,224.22z"/>
		</g>
		<path style="fill:#8CC63F;" d="M253.535,62.134c-0.169,0.972-0.204,1.96-0.256,2.943l-0.091,2.953
			c-0.044,1.97-0.062,3.939-0.052,5.909c-0.038,3.938,0.053,7.879,0.08,11.818l0.414,23.634l-1.814-1.814l16.847-0.234l16.847-0.083
			l16.846,0.081l16.847,0.231l-1.818,1.818l0.413-23.634c0.026-3.938,0.119-7.88,0.082-11.818c0.01-1.971-0.007-3.94-0.051-5.909
			l-0.091-2.954c-0.052-0.983-0.086-1.971-0.255-2.943c0.291,0.947,0.452,1.928,0.629,2.902c0.169,0.976,0.322,1.955,0.452,2.937
			c0.251,1.963,0.479,3.931,0.673,5.899c0.357,3.94,0.687,7.884,0.894,11.831c0.216,3.947,0.443,7.894,0.556,11.843l0.334,11.846
			l0.051,1.793l-1.869,0.026l-16.847,0.231l-16.846,0.081l-16.847-0.083l-16.847-0.234l-1.865-0.026l0.051-1.788l0.335-11.846
			c0.112-3.948,0.342-7.896,0.555-11.843c0.209-3.947,0.536-7.891,0.893-11.831c0.195-1.969,0.422-3.936,0.672-5.9
			c0.13-0.982,0.283-1.961,0.451-2.937C253.084,64.062,253.245,63.081,253.535,62.134z"/>
		<path style="fill:#8CC63F;" d="M285.61,219.865l2.799-0.183c0.933-0.062,1.857-0.197,2.783-0.277
			c0.926-0.074,1.845-0.248,2.765-0.367c0.922-0.114,1.827-0.336,2.739-0.498c0.91-0.176,1.8-0.434,2.699-0.646
			c0.883-0.27,1.771-0.519,2.635-0.831c1.734-0.612,3.401-1.372,4.999-2.231c0.774-0.472,1.56-0.923,2.279-1.467
			c0.375-0.251,0.727-0.53,1.067-0.822c0.348-0.283,0.695-0.566,1.009-0.885c0.656-0.606,1.259-1.264,1.81-1.958
			c0.555-0.69,1.07-1.413,1.503-2.181c0.892-1.522,1.542-3.177,1.921-4.894c0.19-0.857,0.328-1.727,0.385-2.6
			c0.063-0.853,0.049-1.789-0.037-2.535l0.972,1.021l-16.354-2.889l-16.335-2.991h0.521l-16.335,2.993l-16.354,2.891l0.974-1.023
			c-0.083,0.745-0.099,1.68-0.036,2.533c0.057,0.872,0.194,1.742,0.384,2.598c0.378,1.716,1.028,3.371,1.919,4.892
			c0.434,0.768,0.947,1.491,1.503,2.179c0.55,0.693,1.153,1.351,1.808,1.958c0.313,0.319,0.66,0.602,1.008,0.885
			c0.34,0.292,0.692,0.571,1.066,0.822c0.718,0.544,1.503,0.996,2.277,1.468c1.598,0.86,3.264,1.618,4.997,2.232
			c0.864,0.313,1.752,0.562,2.634,0.832c0.898,0.212,1.788,0.471,2.697,0.646c0.911,0.162,1.815,0.384,2.737,0.499
			c0.921,0.119,1.837,0.293,2.765,0.368c0.927,0.079,1.852,0.215,2.783,0.277l2.797,0.184c-1.868,0.05-3.741,0.101-5.616,0.02
			c-0.939-0.014-1.871-0.127-2.81-0.186c-0.939-0.054-1.867-0.218-2.804-0.322c-0.935-0.118-1.858-0.32-2.791-0.477
			c-0.92-0.216-1.849-0.413-2.761-0.676c-0.91-0.274-1.826-0.535-2.714-0.891c-0.904-0.313-1.762-0.745-2.637-1.141
			c-0.845-0.459-1.702-0.902-2.503-1.449c-0.414-0.251-0.808-0.534-1.192-0.832c-0.391-0.289-0.781-0.579-1.141-0.91
			c-1.487-1.261-2.8-2.755-3.846-4.428c-1.055-1.667-1.85-3.504-2.343-5.422c-0.248-0.958-0.435-1.934-0.535-2.923
			c-0.096-1.007-0.145-1.948-0.037-3.062l0.083-0.848l0.892-0.175l16.296-3.202l16.315-3.1l0.261-0.049l0.261,0.049l16.314,3.102
			l16.295,3.204l0.892,0.175l0.081,0.846c0.106,1.114,0.058,2.055-0.038,3.062c-0.1,0.99-0.287,1.965-0.535,2.923
			c-0.493,1.918-1.289,3.755-2.343,5.422c-1.046,1.673-2.362,3.165-3.848,4.427c-0.36,0.331-0.75,0.621-1.141,0.91
			c-0.384,0.298-0.779,0.58-1.193,0.832c-0.801,0.547-1.659,0.99-2.504,1.449c-0.875,0.396-1.733,0.83-2.638,1.14
			c-0.888,0.357-1.805,0.617-2.715,0.891c-0.913,0.263-1.841,0.46-2.762,0.676c-0.933,0.157-1.856,0.359-2.792,0.477
			c-0.937,0.104-1.865,0.268-2.805,0.322c-0.939,0.059-1.87,0.173-2.811,0.187C289.347,219.965,287.481,219.915,285.61,219.865z"/>
		<path style="fill:#9AD4ED;" d="M285.509,98.91c-22.799,0-33.693,10.481-33.693,10.481v87.937
			c14.745,5.862,33.693,5.152,33.693,5.152s18.948,0.711,33.693-5.152v-87.937C319.202,109.392,308.309,98.91,285.509,98.91z"/>
		<g>
			<path style="fill:#F2F2F2;" d="M251.816,143.845v8.642l51.242-51.242c-2.146-0.61-4.525-1.13-7.111-1.532L251.816,143.845z"/>
			<path style="fill:#F2F2F2;" d="M309.696,103.619c-0.906-0.396-1.87-0.786-2.909-1.165l-54.971,54.972v4.074L309.696,103.619z"/>
			<path style="fill:#F2F2F2;" d="M319.202,148.561v-8.642l-59.814,59.814c2.417,0.605,4.841,1.081,7.189,1.454L319.202,148.561z"/>
			<path style="fill:#F2F2F2;" d="M319.202,157.573v-4.074l-48.278,48.278c1.29,0.147,2.532,0.266,3.713,0.361L319.202,157.573z"/>
		</g>
		<path style="fill:#8CC63F;" d="M312.037,131.243l7.332-18.476l-0.167-3.375l-1.516-1.241l-8.268,19.775
			c0,0-6.617-4.264-23.909-4.264s-23.909,4.264-23.909,4.264l-8.268-19.775l-1.516,1.241l-0.167,3.375l7.332,18.476v41.215
			l-7.332,14.449l0.167,10.422l2.437,0.896l6.86-24.48h48.793l6.86,24.48l2.437-0.896l0.167-10.422l-7.332-14.449V131.243z"/>
		<path style="fill:#8CC63F;" d="M253.331,108.151c0,0-11.677-1.693-11.677,5.525h11.677V108.151z"/>
		<path style="fill:#8CC63F;" d="M317.687,108.151c0,0,11.677-1.693,11.677,5.525h-11.677V108.151z"/>
		<path style="fill:#8CC63F;" d="M253.719,61.838c0,0,0.117-0.238,0.44-0.614c0.317-0.378,0.826-0.907,1.574-1.455
			c0.741-0.555,1.695-1.164,2.854-1.732c1.149-0.59,2.501-1.147,4.013-1.631c1.51-0.486,3.171-0.945,4.95-1.309
			c0.886-0.209,1.802-0.382,2.744-0.525c0.94-0.155,1.902-0.323,2.887-0.409c0.984-0.103,1.984-0.209,2.997-0.315
			c1.015-0.065,2.042-0.131,3.078-0.197c2.071-0.156,4.178-0.134,6.284-0.211c2.126,0.073,4.188,0.054,6.276,0.209
			c1.038,0.066,2.068,0.132,3.086,0.197c1.013,0.107,2.013,0.212,2.997,0.315c0.985,0.088,1.947,0.252,2.887,0.408
			c0.942,0.144,1.859,0.316,2.744,0.526c1.779,0.364,3.44,0.823,4.95,1.31c1.512,0.484,2.865,1.04,4.013,1.631
			c1.159,0.568,2.114,1.177,2.854,1.732c0.748,0.548,1.257,1.077,1.574,1.455c0.323,0.376,0.44,0.614,0.44,0.614
			s-0.141-0.225-0.497-0.562c-0.346-0.345-0.908-0.793-1.675-1.28c-0.766-0.487-1.741-1.011-2.917-1.479
			c-1.166-0.486-2.526-0.925-4.024-1.346c-1.501-0.407-3.149-0.781-4.914-1.057c-0.877-0.165-1.786-0.292-2.72-0.391
			c-0.934-0.095-1.876-0.274-2.852-0.335c-0.972-0.087-1.96-0.176-2.96-0.265c-1.001-0.049-2.015-0.098-3.036-0.147
			c-2.03-0.124-4.164-0.068-6.228-0.115c-2.083,0.044-4.173-0.01-6.22,0.113c-1.024,0.05-2.04,0.099-3.044,0.147
			c-1,0.09-1.988,0.178-2.96,0.266c-0.975,0.064-1.918,0.238-2.852,0.334c-0.935,0.098-1.843,0.226-2.72,0.391
			c-1.765,0.276-3.413,0.651-4.914,1.058c-1.497,0.421-2.858,0.859-4.024,1.346c-1.176,0.468-2.151,0.992-2.917,1.479
			c-0.766,0.487-1.328,0.936-1.675,1.281C253.859,61.613,253.719,61.838,253.719,61.838z"/>
		<path style="fill:#F2F2F2;" d="M252.897,57.411c0,0,9.627-1.591,15.062-1.591c5.435,0,4.237-5.634-0.495-5.395
			C262.733,50.664,256.23,54.055,252.897,57.411z"/>
		<path style="fill:#F2F2F2;" d="M318.121,57.411c0,0-9.627-1.591-15.062-1.591s-4.237-5.634,0.495-5.395
			C308.285,50.664,314.788,54.055,318.121,57.411z"/>
	</g>
	<g>
		<path style="fill:#C1272D;" d="M212.614,99.623c0-3.505,0-26.785,0-26.785l-1.752-2.503c0,0,2.253-18.774-37.048-18.774
			c-39.301,0-37.048,18.774-37.048,18.774l-1.752,2.503c0,0,0,23.28,0,26.785c0,3.505,1.001,7.009,1.001,7.009v72.344l-1.001,2.503
			v28.036c0.313,0.235,0.565,0.879,0.767,1.799c2.333,10.617,12.063,17.977,22.933,17.977h15.1h16.156
			c10.649,0,19.592-7.576,21.878-17.977c0.202-0.92,0.454-1.564,0.767-1.799V181.48l-1.001-2.503v-72.344
			C211.613,106.632,212.614,103.128,212.614,99.623z"/>
		<path style="fill:#C1272D;" d="M141.84,65.01c-0.169,0.972-0.204,1.96-0.256,2.943l-0.091,2.954
			c-0.044,1.969-0.062,3.939-0.052,5.909c-0.038,3.938,0.053,7.879,0.08,11.818l0.414,23.634l-1.814-1.814l16.847-0.234
			l16.847-0.083l16.847,0.081l16.847,0.231l-1.818,1.818l0.413-23.634c0.026-3.938,0.119-7.88,0.082-11.818
			c0.01-1.971-0.007-3.94-0.051-5.909l-0.091-2.954c-0.051-0.983-0.086-1.971-0.255-2.943c0.291,0.947,0.452,1.928,0.628,2.902
			c0.169,0.976,0.322,1.955,0.452,2.937c0.251,1.963,0.479,3.931,0.673,5.9c0.357,3.94,0.687,7.884,0.894,11.831
			c0.216,3.947,0.443,7.894,0.556,11.843l0.334,11.846l0.051,1.793l-1.869,0.026l-16.847,0.231l-16.847,0.081l-16.847-0.083
			l-16.847-0.234l-1.865-0.026l0.051-1.788l0.335-11.846c0.112-3.948,0.342-7.896,0.555-11.843
			c0.209-3.947,0.536-7.891,0.892-11.831c0.195-1.969,0.422-3.936,0.672-5.9c0.13-0.982,0.283-1.961,0.451-2.937
			C141.389,66.938,141.549,65.957,141.84,65.01z"/>
		<path style="fill:#C1272D;" d="M173.915,222.741l2.799-0.183c0.933-0.062,1.857-0.197,2.783-0.277
			c0.926-0.074,1.845-0.248,2.765-0.367c0.922-0.114,1.827-0.336,2.739-0.498c0.91-0.176,1.8-0.434,2.699-0.646
			c0.883-0.27,1.771-0.519,2.635-0.831c1.734-0.613,3.401-1.372,4.999-2.231c0.774-0.472,1.56-0.923,2.279-1.467
			c0.375-0.251,0.727-0.53,1.067-0.822c0.348-0.283,0.695-0.566,1.009-0.885c0.656-0.606,1.259-1.264,1.809-1.958
			c0.555-0.69,1.07-1.413,1.503-2.181c0.891-1.522,1.542-3.177,1.921-4.894c0.19-0.857,0.328-1.727,0.385-2.6
			c0.063-0.853,0.049-1.789-0.037-2.535l0.972,1.021l-16.354-2.889l-16.335-2.991h0.521l-16.335,2.993l-16.354,2.891l0.974-1.023
			c-0.083,0.745-0.099,1.68-0.036,2.533c0.057,0.872,0.194,1.742,0.384,2.598c0.378,1.716,1.028,3.371,1.919,4.892
			c0.434,0.768,0.947,1.491,1.503,2.179c0.55,0.694,1.153,1.351,1.808,1.958c0.313,0.319,0.66,0.602,1.008,0.885
			c0.34,0.292,0.692,0.571,1.066,0.822c0.718,0.544,1.503,0.996,2.277,1.468c1.598,0.86,3.264,1.618,4.997,2.232
			c0.864,0.312,1.752,0.562,2.634,0.832c0.898,0.212,1.788,0.47,2.697,0.646c0.911,0.162,1.815,0.384,2.738,0.499
			c0.921,0.119,1.837,0.293,2.765,0.368c0.927,0.079,1.852,0.215,2.783,0.277l2.797,0.184c-1.868,0.05-3.741,0.101-5.616,0.02
			c-0.939-0.014-1.871-0.127-2.81-0.186c-0.939-0.055-1.867-0.218-2.804-0.322c-0.935-0.118-1.859-0.32-2.791-0.477
			c-0.92-0.216-1.849-0.413-2.761-0.676c-0.91-0.274-1.826-0.535-2.714-0.891c-0.904-0.313-1.762-0.745-2.637-1.141
			c-0.845-0.459-1.702-0.902-2.503-1.449c-0.414-0.251-0.808-0.534-1.192-0.832c-0.391-0.289-0.781-0.579-1.141-0.91
			c-1.487-1.261-2.8-2.755-3.846-4.428c-1.054-1.667-1.85-3.504-2.343-5.422c-0.248-0.958-0.435-1.934-0.535-2.923
			c-0.096-1.007-0.146-1.948-0.037-3.062l0.083-0.848l0.892-0.175l16.296-3.202l16.315-3.1l0.261-0.049l0.261,0.049l16.314,3.102
			l16.295,3.204l0.892,0.175l0.081,0.846c0.106,1.114,0.058,2.055-0.038,3.062c-0.1,0.99-0.287,1.965-0.535,2.923
			c-0.493,1.918-1.289,3.755-2.343,5.422c-1.046,1.673-2.362,3.165-3.848,4.427c-0.36,0.331-0.751,0.621-1.141,0.91
			c-0.384,0.298-0.778,0.58-1.193,0.832c-0.801,0.547-1.659,0.99-2.504,1.449c-0.875,0.396-1.733,0.83-2.638,1.14
			c-0.888,0.357-1.805,0.617-2.715,0.891c-0.912,0.263-1.841,0.46-2.762,0.676c-0.933,0.157-1.856,0.359-2.792,0.477
			c-0.937,0.104-1.865,0.268-2.805,0.322c-0.939,0.059-1.87,0.173-2.812,0.187C177.651,222.842,175.785,222.791,173.915,222.741z"/>
		<path style="fill:#1A1A1A;" d="M207.507,165.726v-53.458c0,0-10.894-10.481-33.693-10.481c-22.799,0-33.693,10.481-33.693,10.481
			v53.458H207.507z"/>
		<path style="fill:#F15A24;" d="M156.282,229.292c0,0-0.819-2.196,5.051-2.196c5.87,0,5.187,2.196,5.187,2.196H156.282z"/>
		<path style="fill:#F15A24;" d="M192.261,229.292c0,0,0.819-2.196-5.051-2.196c-5.87,0-5.188,2.196-5.188,2.196H192.261z"/>
		<path style="fill:#C1272D;" d="M141.636,111.027c0,0-11.677-1.693-11.677,5.525h11.677V111.027z"/>
		<path style="fill:#C1272D;" d="M205.991,111.027c0,0,11.677-1.693,11.677,5.525h-11.677V111.027z"/>
		<path style="fill:#C1272D;" d="M142.023,64.714c0,0,0.117-0.238,0.44-0.614c0.317-0.378,0.826-0.907,1.574-1.455
			c0.741-0.555,1.695-1.164,2.854-1.732c1.149-0.59,2.501-1.147,4.013-1.631c1.51-0.486,3.171-0.945,4.95-1.309
			c0.886-0.209,1.802-0.382,2.744-0.525c0.94-0.155,1.902-0.323,2.887-0.409c0.984-0.103,1.984-0.209,2.997-0.315
			c1.015-0.065,2.042-0.131,3.078-0.197c2.071-0.156,4.178-0.135,6.284-0.211c2.126,0.073,4.188,0.054,6.276,0.209
			c1.038,0.066,2.068,0.132,3.086,0.197c1.012,0.107,2.013,0.212,2.997,0.315c0.985,0.088,1.947,0.252,2.887,0.408
			c0.942,0.144,1.859,0.316,2.744,0.526c1.779,0.364,3.44,0.823,4.95,1.31c1.512,0.484,2.864,1.04,4.013,1.631
			c1.159,0.568,2.114,1.177,2.854,1.733c0.748,0.548,1.257,1.077,1.574,1.455c0.323,0.376,0.44,0.614,0.44,0.614
			s-0.141-0.225-0.497-0.562c-0.346-0.345-0.908-0.793-1.675-1.28c-0.766-0.487-1.741-1.011-2.917-1.479
			c-1.166-0.486-2.526-0.925-4.024-1.346c-1.501-0.407-3.149-0.781-4.914-1.057c-0.877-0.165-1.786-0.292-2.72-0.391
			c-0.934-0.095-1.876-0.274-2.852-0.336c-0.972-0.087-1.96-0.176-2.96-0.265c-1.001-0.049-2.015-0.098-3.036-0.147
			c-2.03-0.124-4.164-0.068-6.228-0.115c-2.083,0.044-4.173-0.01-6.219,0.113c-1.024,0.05-2.04,0.099-3.044,0.148
			c-1,0.09-1.988,0.178-2.96,0.265c-0.975,0.064-1.918,0.238-2.852,0.334c-0.935,0.098-1.843,0.226-2.72,0.391
			c-1.765,0.276-3.413,0.651-4.914,1.058c-1.497,0.421-2.858,0.859-4.024,1.346c-1.176,0.468-2.151,0.992-2.917,1.479
			c-0.766,0.487-1.328,0.936-1.675,1.281C142.164,64.489,142.023,64.714,142.023,64.714z"/>
		<path style="fill:#F2F2F2;" d="M141.202,60.288c0,0-3.194,6.143,0.638,6.143s8.989-7.734,14.424-7.734
			c5.435,0,4.237-5.634-0.495-5.395C151.038,53.54,144.535,56.931,141.202,60.288z"/>
		<path style="fill:#F2F2F2;" d="M206.426,60.288c0,0,3.194,6.143-0.638,6.143s-8.989-7.734-14.424-7.734
			c-5.435,0-4.237-5.634,0.495-5.395C196.59,53.54,203.092,56.931,206.426,60.288z"/>
		<path style="fill:#4D4D4D;" d="M207.507,164.376h-33.693H140.12c0,0-4.467,40.98,33.693,40.98
			C211.974,205.356,207.507,164.376,207.507,164.376z"/>
		<path style="fill:#333333;" d="M207.507,164.376h-33.693H140.12c0,0-4.467,16.879,33.693,16.879
			C211.974,181.255,207.507,164.376,207.507,164.376z"/>
		<g>
			<path style="fill:#C69C6D;" d="M157.091,162.024L157.091,162.024c-5.82,0-10.582-4.762-10.582-10.581v-7.726
				c0-5.82,4.762-6.923,10.582-6.923l0,0c5.82,0,10.581,1.103,10.581,6.923v7.726C167.673,157.263,162.911,162.024,157.091,162.024z
				"/>
			<path style="fill:#8C6239;" d="M147.884,136.794h-2.748c-0.911,0-1.657,0.746-1.657,1.657v19.397
				c0,0.911,0.746,1.657,1.657,1.657h2.748c0.912,0,1.657-0.746,1.657-1.657v-19.397
				C149.541,137.539,148.795,136.794,147.884,136.794z"/>
			<path style="fill:#8C6239;" d="M169.047,136.794h-2.748c-0.911,0-1.657,0.746-1.657,1.657v19.397
				c0,0.911,0.746,1.657,1.657,1.657h2.748c0.911,0,1.657-0.746,1.657-1.657v-19.397
				C170.704,137.539,169.958,136.794,169.047,136.794z"/>
			<path style="fill:#A67C52;" d="M167.307,164.376h-20.583c-1.869,0-3.397-1.529-3.397-3.398v-5.634
				c0-1.869,1.529-3.397,3.397-3.397h20.583c1.869,0,3.397,1.529,3.397,3.397v5.634
				C170.704,162.847,169.175,164.376,167.307,164.376z"/>
			<path style="fill:#C69C6D;" d="M163.13,164.083h-12.229c-1.78,0-3.237-1.457-3.237-3.237v-5.368c0-1.781,1.457-3.237,3.237-3.237
				h12.229c1.781,0,3.237,1.457,3.237,3.237v5.368C166.367,162.626,164.91,164.083,163.13,164.083z"/>
		</g>
		<g>
			<path style="fill:#C69C6D;" d="M190.683,162.024L190.683,162.024c-5.82,0-10.582-4.762-10.582-10.581v-7.726
				c0-5.82,4.762-6.923,10.582-6.923l0,0c5.82,0,10.582,1.103,10.582,6.923v7.726C201.265,157.263,196.503,162.024,190.683,162.024z
				"/>
			<path style="fill:#8C6239;" d="M181.324,136.794h-2.748c-0.912,0-1.657,0.746-1.657,1.657v19.397
				c0,0.911,0.746,1.657,1.657,1.657h2.748c0.911,0,1.657-0.746,1.657-1.657v-19.397
				C182.982,137.539,182.236,136.794,181.324,136.794z"/>
			<path style="fill:#8C6239;" d="M202.639,136.794h-2.749c-0.911,0-1.657,0.746-1.657,1.657v19.397
				c0,0.911,0.746,1.657,1.657,1.657h2.749c0.911,0,1.657-0.746,1.657-1.657v-19.397
				C204.296,137.539,203.551,136.794,202.639,136.794z"/>
			<path style="fill:#A67C52;" d="M200.899,164.376h-20.583c-1.868,0-3.397-1.529-3.397-3.398v-5.634
				c0-1.869,1.529-3.397,3.397-3.397h20.583c1.869,0,3.398,1.529,3.398,3.397v5.634
				C204.296,162.847,202.768,164.376,200.899,164.376z"/>
			<path style="fill:#C69C6D;" d="M196.722,164.083h-12.229c-1.78,0-3.237-1.457-3.237-3.237v-5.368
				c0-1.781,1.457-3.237,3.237-3.237h12.229c1.781,0,3.237,1.457,3.237,3.237v5.368
				C199.959,162.626,198.503,164.083,196.722,164.083z"/>
		</g>
		<polygon style="fill:#333333;" points="143.326,116.791 140.12,114.082 140.12,164.376 143.326,164.376 		"/>
		<polygon style="fill:#333333;" points="204.301,116.791 207.507,114.082 207.507,164.376 204.301,164.376 		"/>
		<g>
			<path style="fill:#9AD4ED;" d="M173.814,101.786c-19.38,0-30.127,7.553-32.924,9.825c2.243,4.521,3.83,9.388,5.582,14.108
				c0.751,2.023,1.484,4.052,2.225,6.077h5.795c6.322-1.771,12.951-2.738,19.776-2.738c6.825,0,13.454,0.968,19.776,2.738h5.269
				c0.475-1.143,0.95-2.286,1.395-3.441c1.597-4.15,3.96-9.085,4.55-13.473c0.168-1.252,0.698-2.354,1.462-3.284
				C203.899,109.31,193.157,101.786,173.814,101.786z"/>
			<g>
				<path style="fill:#F2F2F2;" d="M164.601,130.883l26.762-26.762c-2.146-0.61-4.525-1.13-7.111-1.532l-28.293,28.293H164.601z"/>
				<path style="fill:#F2F2F2;" d="M173.614,130.883l24.387-24.387c-0.906-0.396-1.87-0.786-2.909-1.165l-25.553,25.553H173.614z"/>
			</g>
			<path style="fill:#C1272D;" d="M173.341,131.435c9.479,0,27.001,2.684,27.001,2.684l7.332-18.476l-0.167-3.375l-1.516-1.241
				l-8.268,19.775c0,0-6.617-4.264-23.909-4.264s-23.909,4.264-23.909,4.264l-8.268-19.775l-1.516,1.241l-0.166,3.375l7.332,18.476
				C147.286,134.119,164.217,131.435,173.341,131.435z"/>
		</g>
		<path style="fill:#4D4D4D;" d="M176.921,164.376V143.14c0-1.709-1.398-3.107-3.107-3.107s-3.107,1.398-3.107,3.107v21.236H176.921
			z"/>
		<path style="fill:#4D4D4D;" d="M174.261,139.334h-0.911c-0.595,0-1.082-0.487-1.082-1.082v-0.911c0-0.595,0.487-1.081,1.082-1.081
			h0.911c0.595,0,1.082,0.487,1.082,1.081v0.911C175.342,138.847,174.856,139.334,174.261,139.334z"/>
		<path style="fill:#333333;" d="M174.261,155.483h-0.911c-0.595,0-1.082-0.487-1.082-1.081v-15.77c0-0.595,0.487-1.082,1.082-1.082
			h0.911c0.595,0,1.082,0.487,1.082,1.082v15.77C175.342,154.996,174.856,155.483,174.261,155.483z"/>
	</g>
	<g>
		<path style="fill:#00A99D;" d="M324.31,339.738c0-3.505,0-26.785,0-26.785l-1.752-2.503c0,0,2.253-18.774-37.048-18.774
			c-39.301,0-37.048,18.774-37.048,18.774l-1.752,2.503c0,0,0,23.28,0,26.785c0,3.504,1.001,7.009,1.001,7.009v36.162l-1.001,2.503
			v28.036c0.376,0.282,0.663,1.153,0.882,2.383c1.809,10.143,10.863,17.393,21.167,17.393h16.751h18.676
			c9.675,0,17.734-7.177,19.138-16.749c0.23-1.567,0.548-2.698,0.986-3.027v-28.036l-1.001-2.503v-36.162
			C323.308,346.747,324.31,343.242,324.31,339.738z"/>
		<g>
			<path style="fill:#C1272D;" d="M263.181,431.028c-1.401,0-2.337,0.179-2.976,0.433c2.291,0.977,4.77,1.568,7.348,1.71
				C267.602,432.851,267.684,431.028,263.181,431.028z"/>
			<path style="fill:#C1272D;" d="M307.838,431.028c-4.936,0-4.362,2.196-4.362,2.196h0.71c2.564,0,5.009-0.517,7.252-1.436
				C310.854,431.373,309.789,431.028,307.838,431.028z"/>
		</g>
		<path style="fill:#00A99D;" d="M253.535,305.124c-0.169,0.972-0.204,1.96-0.256,2.943l-0.091,2.954
			c-0.044,1.969-0.062,3.939-0.052,5.909c-0.038,3.938,0.053,7.879,0.08,11.818l0.414,23.634l-1.814-1.814l16.847-0.234
			l16.847-0.083l16.846,0.081l16.847,0.231l-1.818,1.818l0.413-23.634c0.026-3.938,0.119-7.88,0.082-11.818
			c0.01-1.971-0.007-3.94-0.051-5.909l-0.091-2.953c-0.052-0.983-0.086-1.971-0.255-2.943c0.291,0.947,0.452,1.928,0.629,2.902
			c0.169,0.976,0.322,1.955,0.452,2.937c0.251,1.963,0.479,3.931,0.673,5.9c0.357,3.94,0.687,7.884,0.894,11.831
			c0.216,3.947,0.443,7.894,0.556,11.843l0.334,11.846l0.051,1.793l-1.869,0.026l-16.847,0.231l-16.846,0.081l-16.847-0.083
			l-16.847-0.234l-1.865-0.026l0.051-1.788l0.335-11.846c0.112-3.949,0.342-7.896,0.555-11.843
			c0.209-3.947,0.536-7.891,0.893-11.831c0.195-1.969,0.422-3.936,0.672-5.9c0.13-0.982,0.283-1.961,0.451-2.937
			C253.084,307.053,253.245,306.071,253.535,305.124z"/>
		<path style="fill:#00A99D;" d="M285.61,432.071l2.799-0.161c0.933-0.054,1.857-0.174,2.783-0.244
			c0.926-0.065,1.845-0.219,2.765-0.323c0.922-0.101,1.827-0.296,2.739-0.439c0.91-0.155,1.8-0.382,2.699-0.569
			c0.883-0.238,1.771-0.458,2.635-0.733c1.734-0.54,3.401-1.209,4.999-1.966c0.774-0.416,1.56-0.813,2.279-1.293
			c0.375-0.221,0.727-0.467,1.067-0.724c0.348-0.25,0.695-0.499,1.009-0.78c0.656-0.534,1.259-1.114,1.81-1.725
			c0.555-0.608,1.07-1.245,1.503-1.921c0.892-1.341,1.542-2.8,1.921-4.312c0.19-0.755,0.328-1.522,0.385-2.291
			c0.063-0.752,0.049-1.576-0.037-2.233l0.972,0.899l-16.354-2.545l-16.335-2.636h0.521l-16.335,2.637l-16.354,2.547l0.974-0.902
			c-0.083,0.656-0.099,1.481-0.036,2.232c0.057,0.769,0.194,1.535,0.384,2.29c0.378,1.512,1.028,2.97,1.919,4.31
			c0.434,0.676,0.947,1.314,1.503,1.92c0.55,0.611,1.153,1.191,1.808,1.725c0.313,0.281,0.66,0.53,1.008,0.78
			c0.34,0.257,0.692,0.503,1.066,0.725c0.718,0.48,1.503,0.877,2.277,1.293c1.598,0.758,3.264,1.425,4.997,1.966
			c0.864,0.275,1.752,0.495,2.634,0.733c0.898,0.187,1.788,0.415,2.697,0.57c0.911,0.143,1.815,0.339,2.737,0.439
			c0.921,0.105,1.837,0.258,2.765,0.324c0.927,0.07,1.852,0.19,2.783,0.244l2.797,0.162c-1.868,0.044-3.741,0.089-5.616,0.018
			c-0.939-0.012-1.871-0.112-2.81-0.164c-0.939-0.048-1.867-0.192-2.804-0.284c-0.935-0.104-1.858-0.282-2.791-0.421
			c-0.92-0.19-1.849-0.364-2.761-0.596c-0.91-0.242-1.826-0.471-2.714-0.785c-0.904-0.275-1.762-0.657-2.637-1.005
			c-0.845-0.405-1.702-0.795-2.503-1.277c-0.414-0.222-0.808-0.47-1.192-0.733c-0.391-0.254-0.781-0.51-1.141-0.802
			c-1.487-1.111-2.8-2.427-3.846-3.901c-1.055-1.469-1.85-3.088-2.343-4.777c-0.248-0.844-0.435-1.704-0.535-2.576
			c-0.096-0.887-0.145-1.717-0.037-2.698l0.083-0.747l0.892-0.154l16.296-2.822l16.315-2.732l0.261-0.044l0.261,0.044l16.314,2.733
			l16.295,2.823l0.892,0.155l0.081,0.745c0.106,0.981,0.058,1.811-0.038,2.698c-0.1,0.872-0.287,1.732-0.535,2.576
			c-0.493,1.69-1.289,3.308-2.343,4.778c-1.046,1.474-2.362,2.789-3.848,3.901c-0.36,0.291-0.75,0.547-1.141,0.802
			c-0.384,0.263-0.779,0.512-1.193,0.733c-0.801,0.482-1.659,0.872-2.504,1.276c-0.875,0.349-1.733,0.731-2.638,1.005
			c-0.888,0.314-1.805,0.543-2.715,0.785c-0.913,0.232-1.841,0.405-2.762,0.596c-0.933,0.138-1.856,0.317-2.792,0.421
			c-0.937,0.092-1.865,0.236-2.805,0.284c-0.939,0.052-1.87,0.152-2.811,0.165C289.347,432.16,287.481,432.115,285.61,432.071z"/>
		<path style="fill:#9AD4ED;" d="M319.202,413.239v-60.857c0,0-10.894-10.481-33.693-10.481c-22.799,0-33.693,10.481-33.693,10.481
			v60.857l33.724-16L319.202,413.239z"/>
		<g>
			<path style="fill:#F2F2F2;" d="M251.816,386.835v8.642l51.242-51.242c-2.146-0.61-4.525-1.13-7.111-1.531L251.816,386.835z"/>
			<path style="fill:#F2F2F2;" d="M309.696,346.61c-0.906-0.396-1.87-0.786-2.909-1.165l-54.971,54.971v4.074L309.696,346.61z"/>
			<polygon style="fill:#F2F2F2;" points="299.179,411.575 319.202,391.551 319.202,382.909 290.536,411.575 			"/>
			<polygon style="fill:#F2F2F2;" points="308.192,411.575 319.202,400.564 319.202,396.49 304.117,411.575 			"/>
		</g>
		<path style="fill:#00A99D;" d="M258.981,418.849h53.056v-44.615l7.332-18.476l-0.167-3.375l-1.516-1.241l-8.268,19.775
			c0,0-6.617-4.264-23.909-4.264c-17.292,0-23.909,4.264-23.909,4.264l-8.268-19.775l-1.516,1.241l-0.167,3.375l7.332,18.476
			V418.849z"/>
		<path style="fill:#00A99D;" d="M253.331,351.142c0,0-11.677-1.693-11.677,5.525h11.677V351.142z"/>
		<path style="fill:#00A99D;" d="M317.687,351.142c0,0,11.677-1.693,11.677,5.525h-11.677V351.142z"/>
		<path style="fill:#00A99D;" d="M253.719,304.828c0,0,0.117-0.238,0.44-0.614c0.317-0.378,0.826-0.907,1.574-1.455
			c0.741-0.555,1.695-1.164,2.854-1.732c1.149-0.59,2.501-1.147,4.013-1.631c1.51-0.487,3.171-0.945,4.95-1.309
			c0.886-0.209,1.802-0.382,2.744-0.525c0.94-0.155,1.902-0.323,2.887-0.409c0.984-0.103,1.984-0.209,2.997-0.315
			c1.015-0.065,2.042-0.13,3.078-0.197c2.071-0.156,4.178-0.135,6.284-0.211c2.126,0.073,4.188,0.053,6.276,0.209
			c1.038,0.066,2.068,0.132,3.086,0.197c1.013,0.107,2.013,0.212,2.997,0.315c0.985,0.088,1.947,0.252,2.887,0.408
			c0.942,0.144,1.859,0.316,2.744,0.526c1.779,0.364,3.44,0.823,4.95,1.31c1.512,0.484,2.865,1.04,4.013,1.631
			c1.159,0.568,2.114,1.177,2.854,1.733c0.748,0.548,1.257,1.077,1.574,1.455c0.323,0.376,0.44,0.614,0.44,0.614
			s-0.141-0.225-0.497-0.562c-0.346-0.345-0.908-0.793-1.675-1.28c-0.766-0.487-1.741-1.011-2.917-1.479
			c-1.166-0.486-2.526-0.925-4.024-1.346c-1.501-0.407-3.149-0.781-4.914-1.057c-0.877-0.165-1.786-0.292-2.72-0.391
			c-0.934-0.095-1.876-0.274-2.852-0.336c-0.972-0.087-1.96-0.176-2.96-0.265c-1.001-0.049-2.015-0.098-3.036-0.147
			c-2.03-0.124-4.164-0.068-6.228-0.115c-2.083,0.044-4.173-0.01-6.22,0.113c-1.024,0.05-2.04,0.099-3.044,0.148
			c-1,0.09-1.988,0.178-2.96,0.266c-0.975,0.064-1.918,0.238-2.852,0.334c-0.935,0.098-1.843,0.226-2.72,0.391
			c-1.765,0.276-3.413,0.651-4.914,1.058c-1.497,0.421-2.858,0.859-4.024,1.346c-1.176,0.468-2.151,0.992-2.917,1.479
			c-0.766,0.487-1.328,0.936-1.675,1.281C253.859,304.603,253.719,304.828,253.719,304.828z"/>
		<path style="fill:#F2F2F2;" d="M252.897,300.402c0,0,9.627-1.591,15.062-1.591c5.435,0,4.237-5.634-0.495-5.395
			C262.733,293.655,256.23,297.046,252.897,300.402z"/>
		<path style="fill:#F2F2F2;" d="M318.121,300.402c0,0-9.627-1.591-15.062-1.591s-4.237-5.634,0.495-5.395
			C308.285,293.655,314.788,297.046,318.121,300.402z"/>
	</g>
	<g>
		<path style="fill:#FF7BAC;" d="M212.614,321.647c0-3.505,0-26.785,0-26.785l-1.752-2.503c0,0,2.253-18.774-37.048-18.774
			c-39.301,0-37.048,18.774-37.048,18.774l-1.752,2.503c0,0,0,23.28,0,26.785c0,3.505,1.001,7.009,1.001,7.009V401l-1.001,2.503
			v28.036c0.313,0.235,0.565,0.879,0.767,1.799c2.333,10.617,12.063,17.977,22.933,17.977h15.1h16.156
			c10.649,0,19.592-7.576,21.878-17.977c0.202-0.92,0.454-1.564,0.767-1.799v-28.036L211.613,401v-72.344
			C211.613,328.656,212.614,325.151,212.614,321.647z"/>
		<path style="fill:#FF7BAC;" d="M141.84,287.033c-0.169,0.972-0.204,1.96-0.256,2.943l-0.091,2.953
			c-0.044,1.97-0.062,3.939-0.052,5.909c-0.038,3.938,0.053,7.879,0.08,11.818l0.414,23.634l-1.814-1.814l16.847-0.234l16.847-0.083
			l16.847,0.081l16.847,0.231l-1.818,1.818l0.413-23.634c0.026-3.938,0.119-7.88,0.082-11.818c0.01-1.971-0.007-3.94-0.051-5.909
			l-0.091-2.954c-0.051-0.983-0.086-1.971-0.255-2.943c0.291,0.947,0.452,1.928,0.628,2.902c0.169,0.976,0.322,1.955,0.452,2.937
			c0.251,1.963,0.479,3.931,0.673,5.899c0.357,3.94,0.687,7.884,0.894,11.831c0.216,3.947,0.443,7.894,0.556,11.843l0.334,11.846
			l0.051,1.793l-1.869,0.026l-16.847,0.231l-16.847,0.081l-16.847-0.083l-16.847-0.234l-1.865-0.026l0.051-1.788l0.335-11.846
			c0.112-3.948,0.342-7.896,0.555-11.843c0.209-3.947,0.536-7.891,0.892-11.831c0.195-1.969,0.422-3.936,0.672-5.9
			c0.13-0.982,0.283-1.961,0.451-2.937C141.389,288.962,141.549,287.98,141.84,287.033z"/>
		<path style="fill:#FF7BAC;" d="M173.915,444.764l2.799-0.183c0.933-0.062,1.857-0.197,2.783-0.277
			c0.926-0.074,1.845-0.248,2.765-0.367c0.922-0.114,1.827-0.336,2.739-0.498c0.91-0.176,1.8-0.434,2.699-0.646
			c0.883-0.27,1.771-0.519,2.635-0.831c1.734-0.613,3.401-1.372,4.999-2.232c0.774-0.472,1.56-0.923,2.279-1.467
			c0.375-0.251,0.727-0.53,1.067-0.822c0.348-0.283,0.695-0.566,1.009-0.885c0.656-0.606,1.259-1.264,1.809-1.958
			c0.555-0.69,1.07-1.413,1.503-2.181c0.891-1.522,1.542-3.177,1.921-4.894c0.19-0.857,0.328-1.727,0.385-2.6
			c0.063-0.853,0.049-1.789-0.037-2.535l0.972,1.021l-16.354-2.889l-16.335-2.991h0.521l-16.335,2.993l-16.354,2.89l0.974-1.023
			c-0.083,0.745-0.099,1.68-0.036,2.533c0.057,0.872,0.194,1.742,0.384,2.598c0.378,1.716,1.028,3.371,1.919,4.892
			c0.434,0.767,0.947,1.491,1.503,2.179c0.55,0.694,1.153,1.351,1.808,1.958c0.313,0.319,0.66,0.602,1.008,0.885
			c0.34,0.292,0.692,0.571,1.066,0.822c0.718,0.544,1.503,0.996,2.277,1.468c1.598,0.86,3.264,1.618,4.997,2.232
			c0.864,0.313,1.752,0.562,2.634,0.832c0.898,0.212,1.788,0.47,2.697,0.646c0.911,0.162,1.815,0.384,2.738,0.499
			c0.921,0.119,1.837,0.293,2.765,0.368c0.927,0.079,1.852,0.216,2.783,0.277l2.797,0.184c-1.868,0.05-3.741,0.101-5.616,0.02
			c-0.939-0.014-1.871-0.127-2.81-0.186c-0.939-0.055-1.867-0.218-2.804-0.322c-0.935-0.118-1.859-0.32-2.791-0.477
			c-0.92-0.216-1.849-0.413-2.761-0.676c-0.91-0.274-1.826-0.535-2.714-0.891c-0.904-0.312-1.762-0.745-2.637-1.141
			c-0.845-0.459-1.702-0.902-2.503-1.449c-0.414-0.251-0.808-0.534-1.192-0.832c-0.391-0.289-0.781-0.579-1.141-0.91
			c-1.487-1.261-2.8-2.755-3.846-4.428c-1.054-1.667-1.85-3.504-2.343-5.422c-0.248-0.958-0.435-1.934-0.535-2.923
			c-0.096-1.007-0.146-1.948-0.037-3.062l0.083-0.848l0.892-0.175l16.296-3.202l16.315-3.1l0.261-0.049l0.261,0.049l16.314,3.102
			l16.295,3.204l0.892,0.175l0.081,0.846c0.106,1.114,0.058,2.055-0.038,3.062c-0.1,0.99-0.287,1.965-0.535,2.924
			c-0.493,1.918-1.289,3.755-2.343,5.422c-1.046,1.673-2.362,3.165-3.848,4.427c-0.36,0.331-0.751,0.621-1.141,0.91
			c-0.384,0.298-0.778,0.581-1.193,0.832c-0.801,0.547-1.659,0.99-2.504,1.449c-0.875,0.395-1.733,0.83-2.638,1.14
			c-0.888,0.357-1.805,0.617-2.715,0.891c-0.912,0.263-1.841,0.46-2.762,0.676c-0.933,0.157-1.856,0.36-2.792,0.478
			c-0.937,0.104-1.865,0.268-2.805,0.322c-0.939,0.059-1.87,0.173-2.812,0.187C177.651,444.865,175.785,444.815,173.915,444.764z"/>
		<path style="fill:#1A1A1A;" d="M207.507,404.935v-70.644c0,0-10.894-10.481-33.693-10.481c-22.799,0-33.693,10.481-33.693,10.481
			v70.644H207.507z"/>
		<path style="fill:#C1272D;" d="M156.282,451.315c0,0-0.819-2.196,5.051-2.196c5.87,0,5.187,2.196,5.187,2.196H156.282z"/>
		<path style="fill:#C1272D;" d="M192.261,451.315c0,0,0.819-2.196-5.051-2.196c-5.87,0-5.188,2.196-5.188,2.196H192.261z"/>
		<path style="fill:#FF7BAC;" d="M141.636,333.051c0,0-11.677-1.693-11.677,5.525h11.677V333.051z"/>
		<path style="fill:#FF7BAC;" d="M205.991,333.051c0,0,11.677-1.693,11.677,5.525h-11.677V333.051z"/>
		<path style="fill:#FF7BAC;" d="M142.023,286.737c0,0,0.117-0.238,0.44-0.614c0.317-0.378,0.826-0.907,1.574-1.455
			c0.741-0.555,1.695-1.164,2.854-1.732c1.149-0.59,2.501-1.147,4.013-1.631c1.51-0.486,3.171-0.945,4.95-1.309
			c0.886-0.209,1.802-0.382,2.744-0.525c0.94-0.155,1.902-0.323,2.887-0.409c0.984-0.103,1.984-0.209,2.997-0.315
			c1.015-0.065,2.042-0.131,3.078-0.197c2.071-0.156,4.178-0.134,6.284-0.211c2.126,0.073,4.188,0.053,6.276,0.209
			c1.038,0.066,2.068,0.132,3.086,0.197c1.012,0.106,2.013,0.212,2.997,0.315c0.985,0.088,1.947,0.252,2.887,0.408
			c0.942,0.144,1.859,0.316,2.744,0.526c1.779,0.364,3.44,0.823,4.95,1.31c1.512,0.484,2.864,1.04,4.013,1.631
			c1.159,0.568,2.114,1.177,2.854,1.732c0.748,0.548,1.257,1.077,1.574,1.455c0.323,0.376,0.44,0.614,0.44,0.614
			s-0.141-0.225-0.497-0.562c-0.346-0.345-0.908-0.793-1.675-1.281c-0.766-0.487-1.741-1.011-2.917-1.479
			c-1.166-0.486-2.526-0.925-4.024-1.346c-1.501-0.407-3.149-0.781-4.914-1.057c-0.877-0.165-1.786-0.293-2.72-0.391
			c-0.934-0.095-1.876-0.274-2.852-0.336c-0.972-0.087-1.96-0.176-2.96-0.265c-1.001-0.049-2.015-0.098-3.036-0.147
			c-2.03-0.124-4.164-0.068-6.228-0.115c-2.083,0.044-4.173-0.01-6.219,0.113c-1.024,0.05-2.04,0.099-3.044,0.147
			c-1,0.09-1.988,0.178-2.96,0.266c-0.975,0.064-1.918,0.238-2.852,0.334c-0.935,0.098-1.843,0.226-2.72,0.391
			c-1.765,0.276-3.413,0.65-4.914,1.058c-1.497,0.421-2.858,0.859-4.024,1.346c-1.176,0.468-2.151,0.992-2.917,1.479
			c-0.766,0.487-1.328,0.936-1.675,1.281C142.164,286.512,142.023,286.737,142.023,286.737z"/>
		<path style="fill:#F2F2F2;" d="M141.202,282.311c0,0-3.194,6.143,0.638,6.143s8.989-7.734,14.424-7.734
			c5.435,0,4.237-5.634-0.495-5.395C151.038,275.564,144.535,278.955,141.202,282.311z"/>
		<path style="fill:#F2F2F2;" d="M206.426,282.311c0,0,3.194,6.143-0.638,6.143s-8.989-7.734-14.424-7.734
			c-5.435,0-4.237-5.634,0.495-5.395C196.59,275.564,203.092,278.955,206.426,282.311z"/>
		<path style="fill:#4D4D4D;" d="M207.507,404.935h-33.693H140.12c0,0-4.467,22.445,33.693,22.445
			C211.974,427.38,207.507,404.935,207.507,404.935z"/>
		<path style="fill:#333333;" d="M207.507,404.935h-33.693H140.12c0,0-4.467,9.244,33.693,9.244
			C211.974,414.18,207.507,404.935,207.507,404.935z"/>
		<g>
			<path style="fill:#E6E6E6;" d="M157.091,379.921L157.091,379.921c-5.82,0-10.582-4.762-10.582-10.582v-7.726
				c0-5.82,4.762-6.923,10.582-6.923l0,0c5.82,0,10.581,1.103,10.581,6.923v7.726C167.673,375.159,162.911,379.921,157.091,379.921z
				"/>
			<path style="fill:#B3B3B3;" d="M147.884,354.69h-2.748c-0.911,0-1.657,0.746-1.657,1.657v19.397c0,0.912,0.746,1.657,1.657,1.657
				h2.748c0.912,0,1.657-0.746,1.657-1.657v-19.397C149.541,355.436,148.795,354.69,147.884,354.69z"/>
			<path style="fill:#B3B3B3;" d="M169.047,354.69h-2.748c-0.911,0-1.657,0.746-1.657,1.657v19.397c0,0.912,0.746,1.657,1.657,1.657
				h2.748c0.911,0,1.657-0.746,1.657-1.657v-19.397C170.704,355.436,169.958,354.69,169.047,354.69z"/>
			<path style="fill:#CCCCCC;" d="M167.307,382.272h-20.583c-1.869,0-3.397-1.529-3.397-3.397v-5.634
				c0-1.868,1.529-3.397,3.397-3.397h20.583c1.869,0,3.397,1.529,3.397,3.397v5.634
				C170.704,380.744,169.175,382.272,167.307,382.272z"/>
			<path style="fill:#E6E6E6;" d="M160.446,381.979h-6.861c-3.257,0-5.921-2.665-5.921-5.921l0,0c0-3.257,2.665-5.921,5.921-5.921
				h6.861c3.257,0,5.921,2.665,5.921,5.921l0,0C166.367,379.315,163.702,381.979,160.446,381.979z"/>
		</g>
		<g>
			<path style="fill:#E6E6E6;" d="M190.683,379.921L190.683,379.921c-5.82,0-10.582-4.762-10.582-10.582v-7.726
				c0-5.82,4.762-6.923,10.582-6.923l0,0c5.82,0,10.582,1.103,10.582,6.923v7.726C201.265,375.159,196.503,379.921,190.683,379.921z
				"/>
			<path style="fill:#B3B3B3;" d="M181.324,354.69h-2.748c-0.912,0-1.657,0.746-1.657,1.657v19.397c0,0.912,0.746,1.657,1.657,1.657
				h2.748c0.911,0,1.657-0.746,1.657-1.657v-19.397C182.982,355.436,182.236,354.69,181.324,354.69z"/>
			<path style="fill:#B3B3B3;" d="M202.639,354.69h-2.749c-0.911,0-1.657,0.746-1.657,1.657v19.397c0,0.912,0.746,1.657,1.657,1.657
				h2.749c0.911,0,1.657-0.746,1.657-1.657v-19.397C204.296,355.436,203.551,354.69,202.639,354.69z"/>
			<path style="fill:#CCCCCC;" d="M200.899,382.272h-20.583c-1.868,0-3.397-1.529-3.397-3.397v-5.634
				c0-1.868,1.529-3.397,3.397-3.397h20.583c1.869,0,3.398,1.529,3.398,3.397v5.634
				C204.296,380.744,202.768,382.272,200.899,382.272z"/>
			<path style="fill:#E6E6E6;" d="M194.038,381.979h-6.861c-3.257,0-5.921-2.665-5.921-5.921l0,0c0-3.257,2.665-5.921,5.921-5.921
				h6.861c3.257,0,5.921,2.665,5.921,5.921l0,0C199.959,379.315,197.295,381.979,194.038,381.979z"/>
		</g>
		<g>
			<path style="fill:#E6E6E6;" d="M190.683,403.518h-16.521c-5.82,0-27.103-3.18-27.103-7.067v-5.16
				c0-3.887,21.283-4.624,27.103-4.624l0,0c5.82,0,27.103,0.737,27.103,4.624v5.16C201.265,400.338,196.503,403.518,190.683,403.518
				z"/>
			<path style="fill:#B3B3B3;" d="M146.908,386.667L146.908,386.667c-1.667,0-3.032,1.364-3.032,3.032v9.106
				c0,1.667,1.364,3.031,3.032,3.031l0,0c1.667,0,3.032-1.364,3.032-3.031v-9.106C149.94,388.031,148.575,386.667,146.908,386.667z"
				/>
			<path style="fill:#B3B3B3;" d="M201.265,386.667L201.265,386.667c-1.667,0-3.032,1.364-3.032,3.032v9.106
				c0,1.667,1.364,3.031,3.032,3.031l0,0c1.667,0,3.032-1.364,3.032-3.031v-9.106C204.296,388.031,202.932,386.667,201.265,386.667z
				"/>
			<path style="fill:#CCCCCC;" d="M200.899,405.089h-53.625c-1.869,0-3.397-1.529-3.397-3.397v-1.506
				c0-1.869,1.529-3.397,3.397-3.397h53.625c1.869,0,3.398,1.529,3.398,3.397v1.506C204.296,403.56,202.768,405.089,200.899,405.089
				z"/>
			<path style="fill:#E6E6E6;" d="M196.004,404.893h-43.836c-2.175,0-3.955-1.78-3.955-3.955l0,0c0-2.175,1.78-3.955,3.955-3.955
				h43.836c2.175,0,3.955,1.78,3.955,3.955l0,0C199.959,403.113,198.179,404.893,196.004,404.893z"/>
		</g>
		<polygon style="fill:#333333;" points="143.326,339.801 140.12,336.105 140.12,404.707 143.326,404.707 		"/>
		<polygon style="fill:#333333;" points="204.301,339.801 207.507,336.105 207.507,404.707 204.301,404.707 		"/>
		<g>
			<path style="fill:#9AD4ED;" d="M173.814,323.81c-19.38,0-30.127,7.553-32.924,9.824c2.243,4.521,3.83,9.388,5.582,14.108
				c0.751,2.023,1.484,4.052,2.225,6.077h5.795c6.322-1.771,12.951-2.738,19.776-2.738c6.825,0,13.454,0.968,19.776,2.738h5.269
				c0.475-1.143,0.95-2.286,1.395-3.441c1.597-4.15,3.96-9.085,4.55-13.473c0.168-1.252,0.698-2.354,1.462-3.284
				C203.899,331.334,193.157,323.81,173.814,323.81z"/>
			<g>
				<path style="fill:#F2F2F2;" d="M164.601,352.906l26.762-26.762c-2.146-0.61-4.525-1.13-7.111-1.532l-28.293,28.293H164.601z"/>
				<path style="fill:#F2F2F2;" d="M173.614,352.906l24.387-24.387c-0.906-0.397-1.87-0.786-2.909-1.166l-25.553,25.553H173.614z"/>
			</g>
			<path style="fill:#FF7BAC;" d="M173.341,353.459c9.479,0,27.001,2.684,27.001,2.684l7.332-18.476l-0.167-3.375l-1.516-1.24
				l-8.268,19.775c0,0-6.617-4.264-23.909-4.264s-23.909,4.264-23.909,4.264l-8.268-19.775l-1.516,1.24l-0.166,3.375l7.332,18.476
				C147.286,356.142,164.217,353.459,173.341,353.459z"/>
		</g>
		<path style="fill:#4D4D4D;" d="M176.76,382.272V369.77c0-1.709-1.398-3.107-3.107-3.107s-3.107,1.398-3.107,3.107v12.503H176.76z"
			/>
		<path style="fill:#4D4D4D;" d="M174.261,366.123h-0.911c-0.595,0-1.082-0.487-1.082-1.082v-0.911c0-0.595,0.487-1.082,1.082-1.082
			h0.911c0.595,0,1.082,0.487,1.082,1.082v0.911C175.342,365.637,174.856,366.123,174.261,366.123z"/>
		<path style="fill:#333333;" d="M174.261,382.272h-0.911c-0.595,0-1.082-0.487-1.082-1.081v-15.77c0-0.595,0.487-1.082,1.082-1.082
			h0.911c0.595,0,1.082,0.487,1.082,1.082v15.77C175.342,381.786,174.856,382.272,174.261,382.272z"/>
	</g>
	<g>
		<path style="fill:#808080;" d="M474.941,424.309H358.834c-1.729,0-3.143-1.414-3.143-3.143v-40.863
			c0-1.729,1.415-3.144,3.143-3.144h116.107c1.729,0,3.143,1.415,3.143,3.144v40.863
			C478.085,422.895,476.67,424.309,474.941,424.309z"/>
		<path style="fill:#808080;" d="M474.941,250.515H358.834c-1.729,0-3.143-1.415-3.143-3.143v-40.863
			c0-1.729,1.415-3.143,3.143-3.143h116.107c1.729,0,3.143,1.414,3.143,3.143v40.863C478.085,249.1,476.67,250.515,474.941,250.515z
			"/>
		<g>
			<g>
				<path style="fill:#29ABE2;" d="M370.351,171.112h93.073v-65.124c0,0,1.233-4.315,1.233-8.629c0-4.315,0-22.478,0-22.478
					l-2.157-3.082c0,0,2.774-23.114-45.612-23.114c-48.386,0-45.612,23.114-45.612,23.114l-2.157,3.082c0,0,0,18.163,0,22.478
					c0,4.314,1.233,8.629,1.233,8.629V171.112z"/>
				<path style="fill:#29ABE2;" d="M377.523,65.243c-0.208,1.197-0.251,2.413-0.315,3.623l-0.113,3.636
					c-0.054,2.425-0.077,4.849-0.064,7.275c-0.047,4.848,0.065-0.798,0.099,4.051l0.509,29.098l-2.233-2.233l20.741-0.288
					l20.741-0.102l20.741,0.099l20.741,0.285l-2.239,2.239l0.508-29.098c0.032-4.849,0.147,0.797,0.101-4.051
					c0.012-2.426-0.009-4.85-0.063-7.275l-0.112-3.636c-0.063-1.21-0.106-2.426-0.313-3.623c0.358,1.166,0.556,2.374,0.774,3.573
					c0.208,1.202,0.397,2.407,0.557,3.616c0.309,2.417,0.59,4.839,0.829,7.263c0.439,4.851,0.846-0.792,1.101,4.067
					c0.266,4.859,0.546,9.719,0.684,14.58l0.411,14.584l0.062,2.207l-2.301,0.032l-20.741,0.285l-20.741,0.099l-20.741-0.102
					l-20.741-0.288l-2.296-0.032l0.062-2.202l0.413-14.584c0.138-4.861,0.421-9.721,0.684-14.58c0.257-4.859,0.66,0.784,1.099-4.067
					c0.24-2.424,0.519-4.846,0.827-7.263c0.161-1.209,0.348-2.414,0.556-3.616C376.968,67.617,377.165,66.408,377.523,65.243z"/>
				<path style="fill:#9AD4ED;" d="M458.369,171.112v-58.186c0,0-13.412-12.904-41.482-12.904c-28.07,0-41.482,12.904-41.482,12.904
					v58.186H458.369z"/>
				<g>
					<path style="fill:#F2F2F2;" d="M375.406,155.343v10.64l63.087-63.087c-2.642-0.751-5.571-1.391-8.755-1.886L375.406,155.343z"
						/>
					<path style="fill:#F2F2F2;" d="M381.373,171.112l65.293-65.293c-1.116-0.488-2.302-0.968-3.581-1.435l-66.728,66.728H381.373z"
						/>
					<polygon style="fill:#F2F2F2;" points="448.406,171.112 458.369,161.149 458.369,150.509 437.766,171.112 					"/>
				</g>
				<path style="fill:#29ABE2;" d="M384.228,171.112h65.32v-31.284l9.027-22.746l-0.205-4.156l-1.866-1.527l-10.18,24.346
					c0,0-8.147-5.249-29.436-5.249c-21.29,0-29.436,5.249-29.436,5.249l-10.18-24.346l-1.866,1.527l-0.205,4.156l9.027,22.746
					V171.112z"/>
				<path style="fill:#29ABE2;" d="M377.272,111.399c0,0-14.376-2.085-14.376,6.802h14.376V111.399z"/>
				<path style="fill:#29ABE2;" d="M456.503,111.399c0,0,14.376-2.085,14.376,6.802h-14.376V111.399z"/>
				<path style="fill:#29ABE2;" d="M377.749,64.878c0,0,0.144-0.293,0.542-0.756c0.39-0.466,1.017-1.117,1.938-1.791
					c0.912-0.683,2.087-1.434,3.514-2.132c1.415-0.726,3.079-1.412,4.941-2.008c1.859-0.599,3.904-1.164,6.094-1.612
					c1.091-0.258,2.219-0.47,3.379-0.647c1.157-0.191,2.342-0.397,3.554-0.504c1.211-0.127,2.443-0.257,3.689-0.388
					c1.25-0.08,2.514-0.161,3.789-0.242c2.55-0.192,5.143-0.166,7.737-0.259c2.617,0.09,5.156,0.066,7.727,0.257
					c1.278,0.082,2.546,0.163,3.799,0.243c1.247,0.131,2.478,0.261,3.689,0.388c1.212,0.108,2.397,0.31,3.555,0.502
					c1.16,0.177,2.288,0.389,3.379,0.647c2.19,0.448,4.236,1.013,6.095,1.613c1.862,0.596,3.527,1.28,4.941,2.008
					c1.427,0.699,2.602,1.45,3.514,2.133c0.921,0.675,1.547,1.326,1.937,1.792c0.397,0.463,0.541,0.757,0.541,0.757
					s-0.173-0.277-0.611-0.692c-0.427-0.425-1.118-0.977-2.062-1.576c-0.943-0.6-2.144-1.244-3.591-1.82
					c-1.436-0.598-3.11-1.139-4.954-1.657c-1.848-0.501-3.877-0.962-6.05-1.302c-1.08-0.203-2.198-0.36-3.349-0.481
					c-1.15-0.117-2.309-0.337-3.511-0.413c-1.196-0.107-2.413-0.216-3.644-0.327c-1.233-0.06-2.48-0.12-3.738-0.181
					c-2.499-0.152-5.127-0.084-7.667-0.141c-2.564,0.054-5.137-0.012-7.657,0.139c-1.261,0.061-2.512,0.122-3.748,0.182
					c-1.231,0.11-2.447,0.22-3.644,0.327c-1.201,0.078-2.361,0.293-3.511,0.411c-1.15,0.121-2.269,0.278-3.349,0.481
					c-2.173,0.34-4.202,0.801-6.05,1.303c-1.843,0.518-3.519,1.058-4.954,1.657c-1.447,0.576-2.648,1.221-3.591,1.821
					c-0.944,0.6-1.635,1.152-2.062,1.577C377.922,64.601,377.749,64.878,377.749,64.878z"/>
				<path style="fill:#F2F2F2;" d="M376.737,59.429c0,0,11.852-1.959,18.544-1.959c6.691,0,5.216-6.936-0.609-6.642
					C388.847,51.122,380.841,55.297,376.737,59.429z"/>
				<path style="fill:#F2F2F2;" d="M457.038,59.429c0,0-11.852-1.959-18.544-1.959c-6.691,0-5.216-6.936,0.609-6.642
					C444.928,51.122,452.934,55.297,457.038,59.429z"/>
			</g>
			<rect x="370.351" y="171.112" style="fill:#29ABE2;" width="93.111" height="10.14"/>
		</g>
		<path style="fill:#F2F2F2;" d="M467.136,449.982H366.639c-3.889,0-7.042-3.153-7.042-7.042V188.295
			c0-3.889,3.153-7.042,7.042-7.042h100.497c3.889,0,7.042,3.153,7.042,7.042V442.94
			C474.179,446.829,471.026,449.982,467.136,449.982z"/>
		
			<rect x="289.714" y="265.517" transform="matrix(-1.836970e-16 1 -1 -1.836970e-16 732.5043 -101.2707)" style="fill:#E6E6E6;" width="254.346" height="100.199"/>
		
			<rect x="241.602" y="313.629" transform="matrix(-1.836970e-16 1 -1 -1.836970e-16 684.3922 -53.1586)" style="fill:#CCCCCC;" width="254.346" height="3.975"/>
		
			<rect x="337.826" y="313.629" transform="matrix(-1.836970e-16 1 -1 -1.836970e-16 780.6164 -149.3828)" style="fill:#CCCCCC;" width="254.346" height="3.975"/>
	</g>
	<g>
		<g>
			<path style="fill:#93278F;" d="M105.237,322.472c0-3.565,0-27.245,0-27.245l-1.782-2.546c0,0,2.292-19.097-37.684-19.097
				c-39.976,0-37.684,19.097-37.684,19.097l-1.782,2.546c0,0,0,23.68,0,27.245c0,3.565,1.018,7.129,1.018,7.129v73.586l-1.018,2.546
				v28.518c0.057,0.043,0.111,0.098,0.164,0.166c9.014,11.626,21.569,16.898,36.28,16.898h3.022h3.023
				c14.711,0,27.266-5.271,36.28-16.898c0.053-0.068,0.107-0.124,0.164-0.166v-28.518l-1.019-2.546v-73.586
				C104.218,329.601,105.237,326.037,105.237,322.472z"/>
			<path style="fill:#93278F;" d="M33.248,287.264c-0.172,0.989-0.207,1.994-0.26,2.993l-0.093,3.004
				c-0.044,2.003-0.063,4.006-0.053,6.011c-0.038,4.005,0.054,8.015,0.082,12.021l0.421,24.04l-1.845-1.845l17.136-0.238
				l17.136-0.084l17.136,0.082l17.136,0.235l-1.85,1.85l0.42-24.04c0.026-4.006,0.121-8.015,0.084-12.021
				c0.01-2.004-0.007-4.008-0.052-6.011l-0.092-3.004c-0.052-1-0.088-2.005-0.259-2.994c0.296,0.963,0.46,1.961,0.639,2.952
				c0.172,0.993,0.328,1.989,0.46,2.987c0.255,1.997,0.487,3.998,0.685,6.001c0.363,4.008,0.699,8.019,0.91,12.034
				c0.22,4.014,0.451,8.03,0.565,12.046l0.34,12.049l0.052,1.824l-1.901,0.026l-17.136,0.235l-17.136,0.082l-17.136-0.084
				l-17.136-0.238l-1.897-0.026l0.052-1.819l0.341-12.049c0.114-4.016,0.347-8.032,0.565-12.046
				c0.212-4.015,0.545-8.026,0.908-12.034c0.198-2.003,0.429-4.004,0.683-6.001c0.133-0.999,0.287-1.994,0.459-2.987
				C32.789,289.226,32.952,288.227,33.248,287.264z"/>
			<path style="fill:#93278F;" d="M65.873,447.703l2.847-0.186c0.949-0.063,1.889-0.2,2.831-0.281
				c0.942-0.076,1.876-0.252,2.813-0.373c0.938-0.116,1.858-0.342,2.785-0.506c0.925-0.179,1.831-0.441,2.745-0.657
				c0.898-0.274,1.802-0.528,2.68-0.846c1.764-0.623,3.459-1.396,5.085-2.27c0.788-0.48,1.587-0.939,2.318-1.492
				c0.381-0.256,0.739-0.539,1.086-0.836c0.354-0.288,0.707-0.576,1.026-0.9c0.667-0.617,1.281-1.286,1.841-1.992
				c0.565-0.702,1.088-1.437,1.529-2.218c0.907-1.548,1.569-3.232,1.954-4.978c0.194-0.872,0.333-1.757,0.392-2.644
				c0.064-0.868,0.05-1.82-0.038-2.578l0.989,1.038l-16.635-2.938l-16.615-3.043h0.53l-16.615,3.044l-16.634,2.94l0.991-1.041
				c-0.085,0.758-0.101,1.709-0.037,2.577c0.058,0.887,0.198,1.772,0.391,2.643c0.385,1.745,1.046,3.428,1.952,4.976
				c0.441,0.78,0.963,1.517,1.529,2.217c0.56,0.705,1.173,1.375,1.839,1.991c0.319,0.324,0.671,0.612,1.025,0.9
				c0.346,0.297,0.704,0.581,1.085,0.836c0.731,0.554,1.529,1.013,2.316,1.493c1.625,0.875,3.32,1.646,5.083,2.27
				c0.878,0.318,1.782,0.572,2.679,0.846c0.913,0.216,1.819,0.479,2.744,0.658c0.927,0.165,1.847,0.391,2.784,0.507
				c0.936,0.121,1.869,0.298,2.813,0.374c0.943,0.081,1.884,0.219,2.83,0.282l2.845,0.187c-1.9,0.051-3.806,0.103-5.713,0.021
				c-0.955-0.014-1.904-0.129-2.858-0.19c-0.955-0.056-1.9-0.221-2.852-0.328c-0.951-0.12-1.89-0.326-2.839-0.485
				c-0.936-0.22-1.881-0.42-2.809-0.688c-0.925-0.279-1.858-0.544-2.761-0.907c-0.919-0.318-1.792-0.758-2.682-1.161
				c-0.859-0.467-1.732-0.918-2.546-1.474c-0.421-0.256-0.822-0.543-1.213-0.846c-0.398-0.294-0.795-0.589-1.161-0.926
				c-1.513-1.283-2.848-2.802-3.912-4.504c-1.073-1.696-1.882-3.564-2.383-5.515c-0.252-0.975-0.442-1.967-0.544-2.973
				c-0.098-1.025-0.148-1.982-0.037-3.114l0.084-0.863l0.907-0.178l16.575-3.257l16.595-3.153l0.265-0.05l0.265,0.05l16.594,3.155
				l16.575,3.259l0.907,0.178l0.082,0.86c0.108,1.133,0.059,2.09-0.039,3.115c-0.101,1.007-0.292,1.999-0.544,2.974
				c-0.501,1.951-1.311,3.819-2.384,5.516c-1.064,1.702-2.402,3.22-3.914,4.503c-0.366,0.336-0.763,0.632-1.161,0.925
				c-0.391,0.304-0.792,0.591-1.213,0.846c-0.815,0.556-1.687,1.007-2.547,1.474c-0.89,0.402-1.763,0.844-2.683,1.16
				c-0.903,0.363-1.836,0.627-2.761,0.907c-0.928,0.268-1.873,0.468-2.809,0.688c-0.949,0.16-1.888,0.366-2.84,0.486
				c-0.953,0.106-1.897,0.272-2.853,0.328c-0.955,0.06-1.902,0.176-2.86,0.19C69.674,447.806,67.776,447.754,65.873,447.703z"/>
			<path style="fill:#9AD4ED;" d="M65.77,324.672c-23.191,0-34.272,10.661-34.272,10.661v89.447
				c14.998,5.963,34.272,5.24,34.272,5.24s19.274,0.723,34.272-5.24v-89.447C100.042,335.334,88.961,324.672,65.77,324.672z"/>
			<g>
				<path style="fill:#F2F2F2;" d="M31.498,370.378v8.791l52.122-52.122c-2.183-0.62-4.603-1.149-7.233-1.558L31.498,370.378z"/>
				<path style="fill:#F2F2F2;" d="M90.372,329.462c-0.922-0.403-1.902-0.8-2.959-1.185l-55.915,55.915v4.144L90.372,329.462z"/>
				<path style="fill:#F2F2F2;" d="M100.042,375.175v-8.791l-60.84,60.84c2.459,0.616,4.924,1.1,7.312,1.479L100.042,375.175z"/>
				<path style="fill:#F2F2F2;" d="M100.042,384.342v-4.144l-49.106,49.106c1.312,0.15,2.576,0.271,3.777,0.368L100.042,384.342z"/>
			</g>
			<path style="fill:#93278F;" d="M92.754,357.56l-2.664-3.373c0,0-6.731-4.337-24.32-4.337s-25.336,5.032-25.336,5.032
				l-1.647,1.467v43.134l-7.458,14.697l0.169,10.601l2.479,0.911l6.978-14.757h49.63l6.978,14.757l2.479-0.911l0.17-10.601
				l-7.458-14.697V357.56z"/>
			<path style="fill:#93278F;" d="M33.04,334.072c0,0-11.878-1.722-11.878,5.62H33.04V334.072z"/>
			<path style="fill:#93278F;" d="M98.5,334.072c0,0,11.878-1.722,11.878,5.62H98.5V334.072z"/>
			<path style="fill:#93278F;" d="M33.434,286.963c0,0,0.119-0.242,0.448-0.625c0.323-0.385,0.84-0.923,1.601-1.48
				c0.753-0.564,1.724-1.184,2.903-1.761c1.169-0.6,2.544-1.167,4.082-1.659c1.536-0.495,3.226-0.961,5.035-1.331
				c0.901-0.213,1.833-0.388,2.791-0.534c0.956-0.158,1.935-0.329,2.937-0.416c1.001-0.105,2.018-0.212,3.048-0.32
				c1.032-0.066,2.077-0.133,3.131-0.2c2.107-0.159,4.25-0.137,6.392-0.214c2.162,0.074,4.259,0.054,6.383,0.212
				c1.056,0.068,2.104,0.135,3.139,0.201c1.03,0.108,2.048,0.215,3.048,0.321c1.002,0.09,1.981,0.256,2.937,0.415
				c0.958,0.146,1.89,0.322,2.791,0.535c1.81,0.37,3.499,0.837,5.035,1.332c1.538,0.492,2.914,1.058,4.082,1.659
				c1.179,0.577,2.15,1.198,2.903,1.762c0.761,0.557,1.278,1.095,1.601,1.48c0.328,0.382,0.447,0.625,0.447,0.625
				s-0.143-0.229-0.505-0.572c-0.352-0.351-0.924-0.807-1.704-1.302c-0.779-0.496-1.771-1.028-2.967-1.504
				c-1.186-0.494-2.57-0.941-4.093-1.369c-1.527-0.414-3.203-0.795-4.999-1.076c-0.892-0.168-1.816-0.298-2.767-0.397
				c-0.95-0.097-1.908-0.278-2.9-0.341c-0.988-0.089-1.993-0.179-3.01-0.27c-1.018-0.049-2.049-0.099-3.088-0.15
				c-2.064-0.126-4.236-0.069-6.335-0.117c-2.119,0.045-4.245-0.01-6.326,0.115c-1.042,0.051-2.076,0.101-3.097,0.15
				c-1.017,0.091-2.022,0.181-3.01,0.27c-0.992,0.065-1.951,0.242-2.901,0.34c-0.951,0.1-1.875,0.23-2.767,0.398
				c-1.796,0.281-3.472,0.662-4.999,1.076c-1.523,0.428-2.907,0.874-4.093,1.369c-1.196,0.476-2.188,1.009-2.967,1.505
				c-0.779,0.496-1.351,0.952-1.703,1.303C33.577,286.734,33.434,286.963,33.434,286.963z"/>
			<path style="fill:#F2F2F2;" d="M32.598,282.461c0,0,9.792-1.618,15.321-1.618c5.528,0,4.31-5.731-0.503-5.488
				C42.603,275.598,35.989,279.047,32.598,282.461z"/>
			<path style="fill:#F2F2F2;" d="M98.942,282.461c0,0-9.792-1.618-15.321-1.618c-5.528,0-4.31-5.731,0.503-5.488
				C88.937,275.598,95.551,279.047,98.942,282.461z"/>
		</g>
		<path style="fill:#93278F;" d="M32.702,333.744c0,0,0.025,0.147,0.073,0.423c0.04,0.245,0.115,0.632,0.23,1.151
			c0.102,0.511,0.272,1.135,0.446,1.851c0.213,0.709,0.409,1.525,0.708,2.392c0.142,0.437,0.291,0.891,0.444,1.362
			c0.173,0.465,0.353,0.945,0.537,1.438c0.346,1.001,0.83,2.002,1.27,3.073c0.506,1.034,1.001,2.128,1.591,3.189
			c0.604,1.052,1.176,2.158,1.88,3.174l1.014,1.559c0.371,0.494,0.741,0.986,1.108,1.474c0.376,0.482,0.722,0.988,1.115,1.441
			c0.399,0.45,0.793,0.894,1.18,1.331c0.396,0.43,0.754,0.889,1.164,1.275c0.409,0.389,0.809,0.77,1.198,1.14
			c0.391,0.372,0.772,0.735,1.14,1.085c0.387,0.327,0.779,0.622,1.147,0.918c0.744,0.578,1.411,1.141,2.038,1.588
			c0.648,0.417,1.213,0.781,1.678,1.08c0.936,0.602,1.471,0.947,1.471,0.947s-0.573-0.276-1.574-0.759
			c-0.504-0.243-1.115-0.538-1.817-0.876c-0.684-0.371-1.421-0.851-2.248-1.344c-0.409-0.253-0.846-0.505-1.281-0.79
			c-0.418-0.309-0.85-0.629-1.294-0.958c-0.446-0.331-0.904-0.671-1.372-1.018c-0.47-0.347-0.892-0.767-1.355-1.159
			c-0.456-0.402-0.919-0.811-1.389-1.225c-0.465-0.42-0.884-0.893-1.337-1.346c-0.445-0.461-0.893-0.926-1.343-1.393l-1.257-1.491
			c-0.87-0.978-1.609-2.051-2.381-3.083c-0.758-1.041-1.42-2.122-2.092-3.154c-0.604-1.067-1.249-2.074-1.748-3.087
			c-0.261-0.502-0.515-0.99-0.761-1.462c-0.226-0.482-0.445-0.948-0.656-1.396c-0.435-0.89-0.758-1.742-1.082-2.484
			c-0.289-0.759-0.555-1.412-0.742-1.973c-0.195-0.547-0.344-1.004-0.443-1.337c-0.091-0.302-0.14-0.464-0.14-0.464L32.702,333.744z
			"/>
		<path style="fill:#93278F;" d="M103.717,334.838c0,0-0.049,0.161-0.14,0.464c-0.098,0.333-0.248,0.79-0.443,1.337
			c-0.188,0.562-0.454,1.214-0.742,1.973c-0.324,0.741-0.647,1.594-1.082,2.484c-0.21,0.448-0.429,0.914-0.655,1.396
			c-0.246,0.472-0.5,0.96-0.761,1.462c-0.499,1.012-1.144,2.02-1.748,3.087c-0.671,1.032-1.333,2.113-2.092,3.154
			c-0.772,1.032-1.511,2.105-2.381,3.083l-1.257,1.491c-0.45,0.467-0.898,0.932-1.343,1.393c-0.452,0.453-0.872,0.926-1.337,1.346
			c-0.469,0.414-0.933,0.823-1.389,1.225c-0.463,0.393-0.884,0.813-1.355,1.159c-0.468,0.347-0.926,0.687-1.372,1.018
			c-0.444,0.329-0.876,0.649-1.294,0.958c-0.435,0.285-0.872,0.537-1.281,0.79c-0.828,0.494-1.564,0.974-2.248,1.344
			c-0.702,0.338-1.313,0.634-1.817,0.876c-1.002,0.483-1.574,0.759-1.574,0.759s0.535-0.344,1.471-0.947
			c0.465-0.299,1.03-0.663,1.678-1.08c0.627-0.447,1.293-1.01,2.038-1.588c0.368-0.296,0.76-0.59,1.147-0.918
			c0.368-0.35,0.749-0.713,1.14-1.085c0.389-0.371,0.789-0.751,1.198-1.14c0.409-0.387,0.768-0.846,1.163-1.275
			c0.387-0.437,0.781-0.881,1.18-1.331c0.393-0.453,0.739-0.959,1.115-1.441c0.367-0.488,0.737-0.98,1.108-1.474l1.014-1.559
			c0.705-1.017,1.277-2.122,1.88-3.174c0.59-1.061,1.085-2.155,1.591-3.189c0.44-1.071,0.924-2.072,1.27-3.073
			c0.184-0.494,0.364-0.974,0.537-1.438c0.154-0.471,0.302-0.925,0.444-1.362c0.3-0.867,0.496-1.683,0.708-2.392
			c0.174-0.716,0.345-1.341,0.446-1.851c0.115-0.519,0.19-0.906,0.23-1.151c0.047-0.276,0.073-0.423,0.073-0.423L103.717,334.838z"
			/>
		<rect x="30.258" y="375.44" style="fill:#93278F;" width="71.019" height="3.894"/>
	</g>
</g>
<g id="designed_by_freepik">
	<g>
		<g>
			<path style="fill:#4B4B4B;" d="M180.289,489.157v-0.161c-0.218,0.249-0.433,0.452-0.645,0.607
				c-0.211,0.157-0.441,0.276-0.688,0.357c-0.247,0.083-0.517,0.122-0.81,0.122c-0.388,0-0.748-0.082-1.078-0.245
				c-0.33-0.165-0.616-0.399-0.857-0.704c-0.242-0.305-0.425-0.662-0.549-1.074c-0.124-0.411-0.187-0.857-0.187-1.336
				c0-1.013,0.248-1.803,0.742-2.369c0.495-0.565,1.145-0.849,1.953-0.849c0.466,0,0.86,0.081,1.181,0.241
				c0.321,0.159,0.633,0.407,0.938,0.738v-2.392c0-0.333,0.066-0.584,0.199-0.755c0.132-0.169,0.321-0.255,0.567-0.255
				c0.245,0,0.434,0.078,0.566,0.234c0.133,0.157,0.199,0.387,0.199,0.692v7.147c0,0.309-0.071,0.539-0.214,0.694
				c-0.142,0.154-0.326,0.23-0.552,0.23c-0.222,0-0.405-0.079-0.549-0.239C180.361,489.682,180.289,489.453,180.289,489.157z
				 M177.101,486.776c0,0.439,0.068,0.813,0.205,1.122c0.137,0.309,0.324,0.541,0.561,0.697c0.238,0.156,0.497,0.235,0.778,0.235
				c0.285,0,0.545-0.074,0.781-0.224c0.235-0.147,0.423-0.376,0.564-0.682c0.141-0.307,0.211-0.691,0.211-1.149
				c0-0.432-0.07-0.803-0.211-1.114c-0.14-0.311-0.33-0.547-0.57-0.712c-0.239-0.163-0.501-0.245-0.786-0.245
				c-0.297,0-0.562,0.084-0.795,0.251c-0.234,0.169-0.415,0.409-0.543,0.725C177.165,485.995,177.101,486.36,177.101,486.776z"/>
			<path style="fill:#4B4B4B;" d="M187.435,487.186h-3.169c0.004,0.368,0.078,0.692,0.223,0.974c0.144,0.28,0.336,0.492,0.576,0.634
				c0.239,0.144,0.503,0.214,0.792,0.214c0.194,0,0.371-0.022,0.531-0.067c0.16-0.046,0.315-0.117,0.466-0.215
				c0.15-0.096,0.289-0.2,0.415-0.311c0.126-0.111,0.29-0.263,0.492-0.452c0.083-0.07,0.202-0.107,0.357-0.107
				c0.166,0,0.3,0.047,0.403,0.138c0.102,0.092,0.155,0.219,0.155,0.386c0,0.146-0.058,0.316-0.172,0.513
				c-0.116,0.197-0.289,0.385-0.52,0.564c-0.232,0.181-0.522,0.329-0.873,0.448c-0.35,0.119-0.752,0.178-1.208,0.178
				c-1.04,0-1.85-0.297-2.428-0.89c-0.578-0.594-0.867-1.399-0.867-2.416c0-0.479,0.071-0.924,0.213-1.333
				c0.143-0.41,0.35-0.76,0.623-1.054c0.273-0.292,0.609-0.517,1.01-0.673c0.399-0.157,0.843-0.235,1.33-0.235
				c0.633,0,1.176,0.134,1.629,0.4c0.454,0.268,0.793,0.613,1.019,1.036c0.225,0.423,0.338,0.855,0.338,1.293
				c0,0.409-0.117,0.673-0.35,0.794C188.188,487.126,187.859,487.186,187.435,487.186z M184.266,486.267h2.939
				c-0.039-0.555-0.189-0.97-0.449-1.244c-0.259-0.276-0.6-0.413-1.024-0.413c-0.404,0-0.736,0.14-0.995,0.418
				C184.478,485.307,184.321,485.72,184.266,486.267z"/>
			<path style="fill:#4B4B4B;" d="M194.819,487.963c0,0.447-0.108,0.83-0.327,1.148c-0.217,0.319-0.539,0.561-0.964,0.726
				c-0.425,0.163-0.943,0.245-1.552,0.245c-0.582,0-1.081-0.089-1.496-0.267c-0.415-0.177-0.722-0.4-0.92-0.666
				c-0.198-0.268-0.297-0.536-0.297-0.806c0-0.179,0.063-0.329,0.19-0.457c0.126-0.125,0.287-0.188,0.48-0.188
				c0.17,0,0.3,0.041,0.392,0.124c0.091,0.083,0.178,0.2,0.261,0.35c0.167,0.29,0.366,0.504,0.597,0.648
				c0.231,0.141,0.547,0.213,0.947,0.213c0.324,0,0.59-0.073,0.798-0.217c0.207-0.146,0.311-0.31,0.311-0.496
				c0-0.285-0.107-0.492-0.323-0.622c-0.216-0.131-0.571-0.257-1.066-0.375c-0.558-0.138-1.012-0.284-1.362-0.438
				c-0.35-0.15-0.63-0.353-0.84-0.602c-0.209-0.249-0.314-0.557-0.314-0.92c0-0.324,0.097-0.632,0.291-0.921
				c0.194-0.288,0.48-0.519,0.858-0.69c0.377-0.173,0.833-0.259,1.368-0.259c0.42,0,0.797,0.044,1.131,0.132
				c0.335,0.085,0.614,0.203,0.837,0.35c0.224,0.145,0.394,0.308,0.51,0.486c0.117,0.178,0.175,0.352,0.175,0.522
				c0,0.186-0.063,0.338-0.186,0.458c-0.125,0.117-0.301,0.178-0.532,0.178c-0.166,0-0.308-0.048-0.424-0.144
				c-0.117-0.094-0.25-0.237-0.401-0.427c-0.122-0.158-0.267-0.285-0.433-0.381c-0.166-0.095-0.392-0.141-0.677-0.141
				c-0.293,0-0.536,0.061-0.73,0.187c-0.194,0.124-0.291,0.279-0.291,0.465c0,0.171,0.071,0.31,0.213,0.419
				c0.143,0.109,0.334,0.2,0.577,0.271c0.241,0.071,0.573,0.157,0.997,0.26c0.502,0.124,0.913,0.271,1.231,0.44
				c0.318,0.169,0.56,0.37,0.725,0.603C194.737,487.402,194.819,487.666,194.819,487.963z"/>
			<path style="fill:#4B4B4B;" d="M196.475,482.739c-0.226,0-0.419-0.069-0.579-0.207c-0.16-0.138-0.24-0.335-0.24-0.588
				c0-0.229,0.082-0.418,0.247-0.567c0.164-0.149,0.355-0.223,0.573-0.223c0.21,0,0.395,0.066,0.558,0.202
				c0.163,0.135,0.244,0.33,0.244,0.588c0,0.25-0.08,0.444-0.238,0.584C196.88,482.669,196.692,482.739,196.475,482.739z
				 M197.276,484.413v4.685c0,0.324-0.077,0.569-0.232,0.735c-0.155,0.166-0.35,0.249-0.588,0.249c-0.238,0-0.431-0.084-0.579-0.255
				c-0.149-0.17-0.223-0.414-0.223-0.729v-4.637c0-0.32,0.074-0.561,0.223-0.724c0.148-0.163,0.341-0.244,0.579-0.244
				c0.238,0,0.433,0.081,0.588,0.244C197.199,483.899,197.276,484.125,197.276,484.413z"/>
			<path style="fill:#4B4B4B;" d="M204.376,484.681v4.707c0,0.538-0.058,1.002-0.173,1.391c-0.114,0.387-0.298,0.708-0.552,0.96
				c-0.253,0.253-0.585,0.442-0.994,0.564c-0.41,0.123-0.919,0.185-1.529,0.185c-0.558,0-1.057-0.078-1.496-0.234
				c-0.439-0.158-0.777-0.359-1.015-0.605c-0.237-0.248-0.356-0.502-0.356-0.764c0-0.197,0.067-0.359,0.202-0.483
				c0.134-0.125,0.297-0.188,0.487-0.188c0.237,0,0.445,0.105,0.624,0.314c0.087,0.106,0.176,0.215,0.27,0.324
				c0.093,0.109,0.196,0.202,0.309,0.279c0.113,0.077,0.249,0.134,0.407,0.172c0.158,0.037,0.341,0.057,0.546,0.057
				c0.419,0,0.745-0.059,0.977-0.176c0.232-0.116,0.394-0.279,0.487-0.489c0.093-0.209,0.147-0.434,0.163-0.675
				c0.016-0.239,0.027-0.623,0.035-1.154c-0.25,0.35-0.537,0.614-0.864,0.796c-0.326,0.182-0.715,0.273-1.166,0.273
				c-0.543,0-1.016-0.14-1.422-0.416c-0.405-0.277-0.717-0.664-0.935-1.163c-0.218-0.5-0.326-1.075-0.326-1.728
				c0-0.486,0.066-0.927,0.198-1.317c0.133-0.392,0.322-0.723,0.567-0.992c0.245-0.269,0.528-0.472,0.849-0.608
				c0.32-0.137,0.672-0.205,1.057-0.205c0.459,0,0.857,0.089,1.193,0.264c0.336,0.177,0.649,0.453,0.938,0.829v-0.22
				c0-0.28,0.069-0.498,0.208-0.653c0.139-0.153,0.317-0.231,0.534-0.231c0.313,0,0.52,0.103,0.623,0.306
				C204.324,484.003,204.376,484.297,204.376,484.681z M199.68,486.735c0,0.656,0.143,1.153,0.43,1.489
				c0.287,0.337,0.659,0.505,1.114,0.505c0.269,0,0.523-0.073,0.762-0.217c0.24-0.145,0.435-0.362,0.585-0.653
				c0.149-0.29,0.225-0.644,0.225-1.06c0-0.66-0.145-1.176-0.436-1.543c-0.292-0.367-0.674-0.552-1.15-0.552
				c-0.463,0-0.834,0.176-1.112,0.528C199.819,485.585,199.68,486.086,199.68,486.735z"/>
			<path style="fill:#4B4B4B;" d="M206.951,484.39v0.195c0.284-0.376,0.596-0.651,0.935-0.827c0.338-0.176,0.727-0.265,1.166-0.265
				c0.428,0,0.81,0.094,1.146,0.279c0.336,0.187,0.588,0.449,0.753,0.788c0.107,0.199,0.177,0.413,0.208,0.643
				c0.032,0.229,0.048,0.522,0.048,0.879v3.016c0,0.324-0.075,0.569-0.223,0.735c-0.148,0.166-0.341,0.249-0.579,0.249
				c-0.242,0-0.438-0.084-0.588-0.255c-0.151-0.17-0.226-0.414-0.226-0.729v-2.702c0-0.533-0.074-0.942-0.223-1.226
				c-0.149-0.281-0.444-0.425-0.888-0.425c-0.289,0-0.552,0.087-0.789,0.259c-0.237,0.172-0.412,0.409-0.523,0.709
				c-0.079,0.242-0.119,0.692-0.119,1.355v2.03c0,0.328-0.077,0.574-0.228,0.739c-0.152,0.163-0.349,0.245-0.591,0.245
				c-0.234,0-0.425-0.084-0.576-0.255c-0.15-0.17-0.226-0.414-0.226-0.729v-4.685c0-0.309,0.067-0.539,0.202-0.692
				c0.134-0.151,0.318-0.228,0.552-0.228c0.143,0,0.271,0.034,0.387,0.101c0.114,0.068,0.206,0.169,0.276,0.304
				C206.916,484.031,206.951,484.196,206.951,484.39z"/>
			<path style="fill:#4B4B4B;" d="M216.81,487.186h-3.169c0.004,0.368,0.078,0.692,0.223,0.974c0.145,0.28,0.336,0.492,0.576,0.634
				c0.239,0.144,0.503,0.214,0.792,0.214c0.194,0,0.371-0.022,0.532-0.067c0.16-0.046,0.315-0.117,0.466-0.215
				c0.15-0.096,0.288-0.2,0.416-0.311c0.126-0.111,0.29-0.263,0.492-0.452c0.083-0.07,0.202-0.107,0.356-0.107
				c0.167,0,0.301,0.047,0.404,0.138c0.103,0.092,0.154,0.219,0.154,0.386c0,0.146-0.057,0.316-0.172,0.513
				c-0.115,0.197-0.288,0.385-0.52,0.564c-0.232,0.181-0.522,0.329-0.873,0.448c-0.35,0.119-0.753,0.178-1.208,0.178
				c-1.04,0-1.85-0.297-2.428-0.89c-0.577-0.594-0.866-1.399-0.866-2.416c0-0.479,0.071-0.924,0.213-1.333
				c0.143-0.41,0.35-0.76,0.624-1.054c0.272-0.292,0.609-0.517,1.009-0.673c0.399-0.157,0.843-0.235,1.33-0.235
				c0.633,0,1.176,0.134,1.629,0.4c0.454,0.268,0.793,0.613,1.019,1.036c0.225,0.423,0.338,0.855,0.338,1.293
				c0,0.409-0.117,0.673-0.351,0.794C217.563,487.126,217.234,487.186,216.81,487.186z M213.641,486.267h2.939
				c-0.04-0.555-0.189-0.97-0.448-1.244c-0.259-0.276-0.601-0.413-1.024-0.413c-0.404,0-0.736,0.14-0.995,0.418
				C213.852,485.307,213.696,485.72,213.641,486.267z"/>
			<path style="fill:#4B4B4B;" d="M223.416,489.157v-0.161c-0.218,0.249-0.432,0.452-0.644,0.607
				c-0.212,0.157-0.441,0.276-0.688,0.357c-0.247,0.083-0.517,0.122-0.81,0.122c-0.388,0-0.747-0.082-1.078-0.245
				c-0.331-0.165-0.616-0.399-0.858-0.704c-0.242-0.305-0.424-0.662-0.549-1.074c-0.125-0.411-0.187-0.857-0.187-1.336
				c0-1.013,0.247-1.803,0.742-2.369c0.495-0.565,1.146-0.849,1.953-0.849c0.467,0,0.861,0.081,1.182,0.241
				c0.32,0.159,0.633,0.407,0.937,0.738v-2.392c0-0.333,0.066-0.584,0.199-0.755c0.132-0.169,0.322-0.255,0.567-0.255
				c0.245,0,0.434,0.078,0.567,0.234c0.132,0.157,0.199,0.387,0.199,0.692v7.147c0,0.309-0.071,0.539-0.213,0.694
				c-0.143,0.154-0.326,0.23-0.552,0.23c-0.222,0-0.405-0.079-0.549-0.239C223.489,489.682,223.416,489.453,223.416,489.157z
				 M220.229,486.776c0,0.439,0.068,0.813,0.205,1.122c0.136,0.309,0.323,0.541,0.562,0.697c0.237,0.156,0.496,0.235,0.777,0.235
				c0.286,0,0.546-0.074,0.781-0.224c0.235-0.147,0.424-0.376,0.564-0.682c0.141-0.307,0.211-0.691,0.211-1.149
				c0-0.432-0.07-0.803-0.211-1.114c-0.14-0.311-0.33-0.547-0.57-0.712c-0.24-0.163-0.501-0.245-0.787-0.245
				c-0.296,0-0.562,0.084-0.796,0.251c-0.233,0.169-0.415,0.409-0.543,0.725C220.293,485.995,220.229,486.36,220.229,486.776z"/>
			<path style="fill:#4B4B4B;" d="M230.04,482.01v2.475c0.305-0.316,0.615-0.56,0.932-0.727c0.316-0.168,0.708-0.253,1.175-0.253
				c0.539,0,1.01,0.128,1.416,0.382c0.405,0.257,0.72,0.627,0.944,1.111c0.223,0.484,0.335,1.06,0.335,1.725
				c0,0.491-0.063,0.94-0.186,1.351c-0.125,0.41-0.306,0.765-0.544,1.065c-0.238,0.3-0.525,0.533-0.864,0.698
				c-0.339,0.163-0.711,0.245-1.119,0.245c-0.249,0-0.484-0.029-0.703-0.089c-0.22-0.059-0.407-0.137-0.562-0.234
				c-0.154-0.097-0.286-0.196-0.395-0.299c-0.109-0.103-0.252-0.258-0.431-0.464v0.161c0,0.304-0.073,0.534-0.22,0.691
				c-0.146,0.157-0.332,0.233-0.558,0.233c-0.23,0-0.413-0.076-0.549-0.233c-0.136-0.157-0.205-0.388-0.205-0.691v-7.077
				c0-0.328,0.066-0.577,0.198-0.744c0.133-0.168,0.318-0.253,0.556-0.253c0.249,0,0.441,0.081,0.576,0.24
				C229.973,481.484,230.04,481.712,230.04,482.01z M230.117,486.824c0,0.645,0.147,1.141,0.442,1.485
				c0.295,0.347,0.682,0.521,1.161,0.521c0.407,0,0.759-0.177,1.053-0.532c0.295-0.354,0.442-0.861,0.442-1.522
				c0-0.427-0.061-0.796-0.184-1.104c-0.123-0.309-0.297-0.547-0.522-0.716c-0.226-0.167-0.489-0.251-0.79-0.251
				c-0.309,0-0.584,0.084-0.825,0.251c-0.241,0.169-0.431,0.412-0.57,0.73C230.186,486.005,230.117,486.385,230.117,486.824z"/>
			<path style="fill:#4B4B4B;" d="M236.944,490.285l0.149-0.363l-1.995-5.022c-0.123-0.288-0.185-0.499-0.185-0.63
				c0-0.138,0.036-0.267,0.107-0.385c0.071-0.119,0.169-0.215,0.294-0.285c0.124-0.072,0.254-0.107,0.389-0.107
				c0.233,0,0.409,0.074,0.528,0.224c0.119,0.147,0.224,0.359,0.314,0.637l1.372,3.989l1.3-3.71c0.102-0.3,0.196-0.535,0.279-0.707
				c0.083-0.169,0.171-0.284,0.264-0.343c0.093-0.06,0.225-0.09,0.395-0.09c0.123,0,0.24,0.032,0.354,0.099
				c0.112,0.065,0.199,0.152,0.261,0.264c0.061,0.111,0.092,0.227,0.092,0.351c-0.016,0.074-0.042,0.182-0.077,0.321
				c-0.036,0.138-0.079,0.279-0.13,0.421l-2.113,5.532c-0.183,0.486-0.36,0.867-0.535,1.145c-0.174,0.277-0.405,0.491-0.692,0.639
				c-0.287,0.148-0.674,0.224-1.16,0.224c-0.475,0-0.831-0.052-1.068-0.154c-0.239-0.104-0.356-0.292-0.356-0.565
				c0-0.186,0.056-0.329,0.169-0.43c0.112-0.101,0.28-0.152,0.5-0.152c0.087,0,0.173,0.013,0.256,0.037
				c0.103,0.023,0.191,0.035,0.267,0.035c0.186,0,0.333-0.027,0.44-0.083c0.107-0.055,0.202-0.151,0.288-0.288
				C236.735,490.751,236.833,490.55,236.944,490.285z"/>
		</g>
		<g>
			<path style="fill:#4B4B4B;" d="M260.421,483.633h0.387v-0.485c0-0.509,0.061-0.911,0.191-1.211
				c0.127-0.299,0.347-0.517,0.654-0.653c0.307-0.136,0.727-0.204,1.26-0.204c0.95,0,1.421,0.229,1.421,0.696
				c0,0.148-0.05,0.278-0.15,0.385c-0.096,0.105-0.215,0.159-0.349,0.159c-0.063,0-0.174-0.011-0.33-0.036
				c-0.147-0.021-0.282-0.035-0.389-0.035c-0.292,0-0.479,0.088-0.565,0.26c-0.08,0.172-0.122,0.418-0.122,0.739v0.386h0.396
				c0.619,0,0.925,0.186,0.925,0.561c0,0.262-0.079,0.432-0.245,0.503c-0.164,0.071-0.39,0.106-0.68,0.106h-0.396v4.295
				c0,0.319-0.076,0.563-0.23,0.729c-0.151,0.171-0.347,0.254-0.59,0.254c-0.229,0-0.419-0.083-0.574-0.254
				c-0.152-0.167-0.227-0.41-0.227-0.729v-4.295h-0.447c-0.243,0-0.426-0.053-0.558-0.164c-0.131-0.105-0.196-0.249-0.196-0.423
				C259.606,483.826,259.877,483.633,260.421,483.633"/>
			<path style="fill:#4B4B4B;" d="M265.727,487.742v1.355c0,0.326-0.083,0.574-0.234,0.736c-0.153,0.166-0.349,0.247-0.586,0.247
				c-0.237,0-0.43-0.082-0.578-0.25c-0.148-0.165-0.226-0.41-0.226-0.733v-4.515c0-0.729,0.262-1.093,0.788-1.093
				c0.271,0,0.464,0.084,0.583,0.256c0.119,0.17,0.185,0.421,0.198,0.754c0.193-0.333,0.391-0.584,0.593-0.754
				c0.208-0.172,0.477-0.256,0.818-0.256c0.343,0,0.67,0.084,0.991,0.256c0.322,0.17,0.482,0.397,0.482,0.677
				c0,0.196-0.07,0.362-0.204,0.488c-0.138,0.131-0.284,0.195-0.442,0.195c-0.062,0-0.206-0.039-0.432-0.112
				c-0.228-0.07-0.431-0.108-0.601-0.108c-0.238,0-0.434,0.064-0.582,0.187c-0.151,0.129-0.271,0.311-0.353,0.555
				c-0.08,0.246-0.137,0.541-0.171,0.877C265.74,486.843,265.727,487.257,265.727,487.742"/>
			<path style="fill:#4B4B4B;" d="M273.177,487.185h-3.171c0.006,0.367,0.078,0.694,0.222,0.974c0.147,0.28,0.337,0.492,0.577,0.636
				c0.241,0.142,0.503,0.213,0.794,0.213c0.194,0,0.37-0.021,0.53-0.069c0.159-0.044,0.315-0.116,0.466-0.214
				c0.151-0.096,0.288-0.199,0.415-0.313c0.127-0.108,0.292-0.26,0.494-0.449c0.084-0.071,0.203-0.108,0.355-0.108
				c0.167,0,0.3,0.046,0.405,0.139c0.104,0.092,0.152,0.219,0.152,0.386c0,0.147-0.057,0.317-0.167,0.512
				c-0.117,0.199-0.29,0.386-0.523,0.566c-0.234,0.178-0.525,0.329-0.874,0.446c-0.35,0.119-0.754,0.179-1.207,0.179
				c-1.044,0-1.853-0.296-2.43-0.889c-0.577-0.595-0.869-1.401-0.869-2.417c0-0.479,0.073-0.924,0.218-1.334
				c0.14-0.412,0.348-0.761,0.623-1.055c0.272-0.295,0.607-0.518,1.009-0.674c0.397-0.156,0.841-0.234,1.329-0.234
				c0.632,0,1.176,0.134,1.63,0.403c0.451,0.265,0.796,0.61,1.018,1.034c0.227,0.425,0.338,0.855,0.338,1.297
				c0,0.405-0.117,0.669-0.35,0.791C273.929,487.125,273.601,487.185,273.177,487.185 M270.006,486.263h2.938
				c-0.039-0.553-0.186-0.968-0.445-1.241c-0.262-0.276-0.6-0.413-1.025-0.413c-0.404,0-0.736,0.138-0.995,0.419
				C270.219,485.306,270.06,485.717,270.006,486.263"/>
			<path style="fill:#4B4B4B;" d="M279.919,487.185h-3.17c0.003,0.367,0.078,0.694,0.221,0.974c0.146,0.28,0.337,0.492,0.576,0.636
				c0.239,0.142,0.503,0.213,0.794,0.213c0.192,0,0.37-0.021,0.527-0.069c0.163-0.044,0.316-0.116,0.469-0.214
				c0.152-0.096,0.288-0.199,0.415-0.313c0.125-0.108,0.291-0.26,0.493-0.449c0.085-0.071,0.204-0.108,0.355-0.108
				c0.168,0,0.302,0.046,0.407,0.139c0.103,0.092,0.149,0.219,0.149,0.386c0,0.147-0.055,0.317-0.171,0.512
				c-0.111,0.199-0.284,0.386-0.519,0.566c-0.231,0.178-0.525,0.329-0.873,0.446c-0.348,0.119-0.754,0.179-1.208,0.179
				c-1.043,0-1.85-0.296-2.43-0.889c-0.577-0.595-0.868-1.401-0.868-2.417c0-0.479,0.072-0.924,0.218-1.334
				c0.142-0.412,0.349-0.761,0.623-1.055c0.272-0.295,0.607-0.518,1.008-0.674c0.399-0.156,0.845-0.234,1.331-0.234
				c0.631,0,1.174,0.134,1.633,0.403c0.45,0.265,0.791,0.61,1.014,1.034c0.225,0.425,0.34,0.855,0.34,1.297
				c0,0.405-0.119,0.669-0.351,0.791C280.669,487.125,280.341,487.185,279.919,487.185 M276.749,486.263h2.938
				c-0.04-0.553-0.19-0.968-0.446-1.241c-0.264-0.276-0.602-0.413-1.027-0.413c-0.403,0-0.734,0.138-0.996,0.419
				C276.96,485.306,276.801,485.717,276.749,486.263"/>
			<path style="fill:#4B4B4B;" d="M283.469,484.402v0.194c0.304-0.376,0.621-0.652,0.953-0.828c0.323-0.178,0.698-0.268,1.113-0.268
				c0.497,0,0.959,0.131,1.38,0.386c0.42,0.26,0.749,0.636,0.993,1.13c0.243,0.497,0.366,1.081,0.366,1.759
				c0,0.497-0.071,0.957-0.21,1.376c-0.141,0.417-0.336,0.767-0.581,1.05c-0.245,0.28-0.534,0.5-0.868,0.652
				c-0.339,0.152-0.694,0.228-1.08,0.228c-0.461,0-0.853-0.093-1.166-0.279c-0.313-0.183-0.613-0.458-0.9-0.815v2.433
				c0,0.709-0.26,1.068-0.778,1.068c-0.306,0-0.505-0.092-0.606-0.274c-0.095-0.188-0.147-0.452-0.147-0.808v-6.995
				c0-0.31,0.067-0.538,0.2-0.692c0.135-0.149,0.32-0.228,0.553-0.228c0.232,0,0.417,0.078,0.561,0.233
				C283.397,483.882,283.469,484.105,283.469,484.402 M286.646,486.757c0-0.429-0.066-0.796-0.197-1.103
				c-0.13-0.307-0.31-0.541-0.541-0.704c-0.229-0.165-0.489-0.248-0.77-0.248c-0.447,0-0.824,0.178-1.131,0.528
				c-0.308,0.354-0.463,0.871-0.463,1.557c0,0.643,0.153,1.146,0.461,1.504c0.304,0.359,0.679,0.537,1.133,0.537
				c0.268,0,0.518-0.079,0.748-0.232c0.232-0.157,0.415-0.393,0.552-0.705C286.576,487.577,286.646,487.199,286.646,486.757"/>
			<path style="fill:#4B4B4B;" d="M289.906,482.736c-0.227,0-0.418-0.072-0.577-0.21c-0.162-0.14-0.241-0.332-0.241-0.585
				c0-0.23,0.081-0.419,0.247-0.569c0.164-0.147,0.354-0.222,0.571-0.222c0.213,0,0.397,0.066,0.559,0.199
				c0.162,0.137,0.244,0.334,0.244,0.592c0,0.249-0.08,0.444-0.236,0.585C290.314,482.664,290.126,482.736,289.906,482.736
				 M290.709,484.41v4.688c0,0.322-0.077,0.567-0.232,0.732c-0.156,0.168-0.35,0.25-0.588,0.25c-0.238,0-0.429-0.083-0.58-0.254
				c-0.147-0.172-0.222-0.415-0.222-0.728v-4.643c0-0.318,0.075-0.559,0.222-0.722c0.151-0.165,0.342-0.244,0.58-0.244
				c0.237,0,0.432,0.079,0.588,0.244C290.632,483.897,290.709,484.124,290.709,484.41"/>
			<path style="fill:#4B4B4B;" d="M295.933,489.342l-1.427-2.353l-0.88,0.83v1.291c0,0.311-0.083,0.551-0.248,0.718
				c-0.161,0.171-0.354,0.254-0.566,0.254c-0.249,0-0.446-0.082-0.588-0.25c-0.142-0.165-0.215-0.41-0.215-0.733v-6.914
				c0-0.359,0.072-0.633,0.207-0.822c0.14-0.19,0.341-0.282,0.596-0.282c0.249,0,0.445,0.086,0.594,0.257
				c0.146,0.17,0.221,0.421,0.221,0.752v3.934l1.822-1.915c0.226-0.235,0.396-0.4,0.517-0.486c0.118-0.087,0.263-0.13,0.431-0.13
				c0.204,0,0.371,0.064,0.511,0.193c0.132,0.128,0.2,0.29,0.2,0.483c0,0.236-0.222,0.556-0.659,0.95l-0.861,0.789l1.662,2.615
				c0.12,0.195,0.212,0.339,0.265,0.44c0.053,0.1,0.082,0.2,0.082,0.289c0,0.258-0.072,0.459-0.214,0.609
				c-0.141,0.147-0.327,0.221-0.553,0.221c-0.198,0-0.354-0.05-0.459-0.16C296.263,489.814,296.115,489.619,295.933,489.342"/>
			<path style="fill:#4B4B4B;" d="M299.456,490.081c-0.245,0-0.455-0.078-0.634-0.238c-0.178-0.154-0.269-0.378-0.269-0.665
				c0-0.24,0.087-0.449,0.257-0.621c0.172-0.175,0.379-0.263,0.63-0.263c0.249,0,0.46,0.088,0.64,0.258
				c0.174,0.172,0.264,0.383,0.264,0.626c0,0.283-0.09,0.506-0.264,0.663C299.9,490.003,299.693,490.081,299.456,490.081"/>
			<path style="fill:#4B4B4B;" d="M307.518,488.075c0,0.2-0.061,0.418-0.182,0.646c-0.12,0.232-0.306,0.449-0.555,0.657
				c-0.246,0.207-0.557,0.376-0.934,0.502c-0.376,0.127-0.801,0.191-1.27,0.191c-1.004,0-1.786-0.293-2.349-0.875
				c-0.56-0.585-0.841-1.369-0.841-2.351c0-0.667,0.128-1.253,0.387-1.765c0.255-0.509,0.627-0.904,1.113-1.184
				c0.487-0.28,1.073-0.419,1.747-0.419c0.421,0,0.804,0.061,1.157,0.184c0.351,0.123,0.646,0.282,0.891,0.476
				c0.242,0.196,0.429,0.401,0.556,0.62c0.129,0.22,0.192,0.425,0.192,0.616c0,0.192-0.07,0.357-0.215,0.492
				c-0.147,0.134-0.322,0.202-0.523,0.202c-0.137,0-0.249-0.035-0.338-0.104c-0.091-0.069-0.19-0.181-0.299-0.338
				c-0.199-0.3-0.404-0.526-0.623-0.676c-0.215-0.15-0.488-0.226-0.821-0.226c-0.477,0-0.864,0.186-1.158,0.561
				c-0.292,0.372-0.44,0.888-0.44,1.534c0,0.306,0.039,0.587,0.114,0.843c0.073,0.254,0.183,0.472,0.325,0.651
				c0.144,0.18,0.314,0.316,0.516,0.409c0.203,0.097,0.427,0.142,0.666,0.142c0.325,0,0.604-0.076,0.835-0.226
				c0.235-0.15,0.439-0.38,0.616-0.688c0.099-0.182,0.205-0.324,0.318-0.428c0.114-0.103,0.255-0.156,0.423-0.156
				c0.197,0,0.362,0.077,0.49,0.228C307.45,487.744,307.518,487.905,307.518,488.075"/>
			<path style="fill:#4B4B4B;" d="M314.511,486.787c0,0.481-0.075,0.928-0.222,1.337c-0.154,0.408-0.37,0.758-0.656,1.049
				c-0.284,0.293-0.626,0.517-1.02,0.675c-0.399,0.155-0.844,0.234-1.337,0.234c-0.491,0-0.933-0.079-1.326-0.239
				c-0.389-0.154-0.731-0.383-1.016-0.676c-0.288-0.298-0.505-0.645-0.657-1.048c-0.143-0.402-0.219-0.847-0.219-1.332
				c0-0.491,0.076-0.94,0.223-1.349c0.151-0.409,0.369-0.758,0.649-1.046c0.282-0.288,0.622-0.511,1.02-0.669
				c0.403-0.155,0.844-0.233,1.326-0.233c0.49,0,0.936,0.078,1.337,0.238c0.398,0.157,0.739,0.385,1.027,0.675
				c0.285,0.297,0.502,0.644,0.649,1.045C314.436,485.855,314.511,486.298,314.511,486.787 M312.884,486.787
				c0-0.661-0.146-1.175-0.436-1.543c-0.29-0.372-0.682-0.555-1.172-0.555c-0.317,0-0.597,0.083-0.839,0.246
				c-0.242,0.164-0.426,0.405-0.557,0.728c-0.131,0.321-0.196,0.696-0.196,1.124c0,0.424,0.063,0.793,0.192,1.109
				c0.131,0.318,0.313,0.56,0.555,0.728c0.24,0.166,0.521,0.252,0.845,0.252c0.49,0,0.882-0.186,1.172-0.558
				C312.737,487.951,312.884,487.439,312.884,486.787"/>
			<path style="fill:#4B4B4B;" d="M320.694,486.906v2.154c0,0.342-0.076,0.595-0.231,0.767c-0.156,0.171-0.357,0.255-0.611,0.255
				c-0.245,0-0.445-0.084-0.595-0.255c-0.153-0.172-0.231-0.425-0.231-0.767v-2.582c0-0.409-0.014-0.726-0.04-0.953
				c-0.028-0.221-0.105-0.409-0.227-0.552c-0.123-0.147-0.318-0.22-0.582-0.22c-0.531,0-0.879,0.182-1.048,0.551
				c-0.167,0.359-0.254,0.884-0.254,1.567v2.188c0,0.336-0.076,0.591-0.226,0.764c-0.156,0.172-0.355,0.258-0.602,0.258
				c-0.248,0-0.448-0.086-0.605-0.258c-0.157-0.173-0.235-0.428-0.235-0.764v-4.638c0-0.305,0.069-0.537,0.21-0.694
				c0.143-0.16,0.328-0.238,0.556-0.238c0.223,0,0.407,0.077,0.558,0.223c0.147,0.148,0.221,0.354,0.221,0.615v0.152
				c0.283-0.334,0.585-0.582,0.903-0.737c0.322-0.162,0.676-0.242,1.07-0.242c0.407,0,0.757,0.082,1.049,0.245
				c0.293,0.162,0.533,0.408,0.725,0.734c0.275-0.33,0.568-0.576,0.882-0.737c0.313-0.161,0.658-0.242,1.039-0.242
				c0.441,0,0.825,0.09,1.146,0.263c0.319,0.174,0.559,0.425,0.717,0.747c0.138,0.296,0.207,0.756,0.207,1.386v3.164
				c0,0.342-0.076,0.595-0.23,0.767c-0.153,0.171-0.358,0.255-0.611,0.255c-0.246,0-0.446-0.086-0.603-0.258
				c-0.156-0.173-0.236-0.428-0.236-0.764v-2.725c0-0.35-0.015-0.628-0.042-0.837c-0.029-0.211-0.111-0.388-0.239-0.529
				c-0.134-0.142-0.332-0.215-0.596-0.215c-0.214,0-0.416,0.067-0.609,0.192c-0.191,0.124-0.342,0.298-0.45,0.508
				C320.755,485.728,320.694,486.213,320.694,486.906"/>
		</g>
		<g>
			<path style="fill:#4B4B4B;" d="M245.253,486.395c-0.001-0.003-0.001-0.006-0.001-0.011
				C245.252,486.389,245.252,486.392,245.253,486.395z"/>
			<path style="fill:#4B4B4B;" d="M245.335,486.913c0.001,0,0.001,0,0.002,0c-0.031-0.147-0.055-0.294-0.074-0.439
				C245.282,486.62,245.306,486.767,245.335,486.913z"/>
			<path style="fill:#4B4B4B;" d="M245.872,488.417c-0.004-0.006-0.007-0.013-0.011-0.02
				C245.865,488.404,245.868,488.411,245.872,488.417z"/>
			<path style="fill:#4B4B4B;" d="M245.82,488.317c-0.014-0.028-0.027-0.057-0.041-0.085
				C245.793,488.262,245.806,488.289,245.82,488.317z"/>
			<path style="fill:#4B4B4B;" d="M245.486,487.492c0.079,0.25,0.175,0.493,0.286,0.724c-0.113-0.235-0.207-0.478-0.284-0.724
				H245.486z"/>
			<path style="fill:#4B4B4B;" d="M251.527,480.185c0.313,0,0.544,0.024,0.809,0.069l0.075-0.477c0,0-0.731-0.225-1.694-0.146
				l-0.076-0.259c0.299-0.064,0.523-0.33,0.523-0.647c0-0.363-0.296-0.658-0.661-0.658c-0.364,0-0.66,0.295-0.66,0.658
				c0,0.317,0.224,0.584,0.522,0.647l0.084,0.289c-1.021,0.141-1.835,0.538-1.835,0.538l0.144,0.44
				c0.618-0.204,1.154-0.33,1.64-0.383C250.876,480.207,251.234,480.185,251.527,480.185z"/>
			<path style="fill:#4B4B4B;" d="M245.859,482.596l0.003-0.005c0.024-0.03,0.047-0.059,0.071-0.089l-0.195-0.141l-0.305-0.224
				c-0.017,0.024-0.497,0.466-0.876,1.28c-0.016-0.025-0.035-0.051-0.057-0.074c-0.113-0.124-0.272-0.188-0.474-0.184
				c-0.002,0-0.006,0-0.009,0c-0.125,0-0.211-0.042-0.267-0.092c0.056-0.071,0.089-0.16,0.089-0.259
				c0-0.229-0.188-0.418-0.418-0.418c-0.23,0-0.417,0.189-0.417,0.418c0,0.231,0.187,0.419,0.417,0.419
				c0.037,0,0.071-0.007,0.105-0.014c0.103,0.114,0.266,0.213,0.505,0.208c0.123-0.001,0.213,0.031,0.273,0.099
				c0.069,0.075,0.093,0.184,0.1,0.267c-0.001,0.001-0.001,0.003-0.002,0.003c-0.272,0.743-0.194,1.668-0.194,1.668l0.661,0.027
				c0.014-0.337,0.062-0.927,0.232-1.395C245.431,483.186,245.842,482.62,245.859,482.596z"/>
			<path style="fill:#4B4B4B;" d="M257.275,480.736c-0.228,0-0.417,0.187-0.417,0.419c0,0.035,0.005,0.069,0.015,0.103
				c-0.115,0.103-0.215,0.268-0.211,0.507c0.002,0.123-0.029,0.212-0.097,0.273c-0.053,0.046-0.12,0.071-0.185,0.088
				c-0.491-0.691-1.098-1.11-1.098-1.11l-0.475,0.508c0.359,0.326,0.726,0.735,1.081,1.244c0.246,0.353,0.499,0.807,0.71,1.26
				l0.64-0.304c0,0-0.292-0.723-0.703-1.37c0.071-0.025,0.143-0.064,0.206-0.12c0.126-0.112,0.188-0.272,0.184-0.474
				c-0.002-0.13,0.041-0.218,0.093-0.276c0.071,0.055,0.161,0.089,0.257,0.089c0.232,0,0.419-0.187,0.419-0.417
				C257.694,480.923,257.508,480.736,257.275,480.736z"/>
			<path style="fill:#4B4B4B;" d="M255.616,486.488c-0.882,0.429-2.331,0.996-4.239,1.263c-0.749,0.103-1.475,0.142-2.143,0.142
				c-0.869,0-1.637-0.066-2.227-0.14c-0.672-0.084-1.198-0.188-1.52-0.261c0.077,0.245,0.171,0.488,0.284,0.724
				c0.002,0.006,0.005,0.014,0.008,0.017c0.014,0.028,0.027,0.057,0.041,0.085c0.013,0.026,0.027,0.054,0.04,0.079
				c0.004,0.008,0.007,0.015,0.011,0.02c0.189,0.356,0.417,0.684,0.675,0.968c0.9,0.984,1.817,1.141,1.826,1.142l0.014,0.001
				l0.014,0.005c0.008,0.004,0.821,0.267,2.057,0.267c1.217,0,2.41-0.245,3.546-0.729c0.843-0.432,1.64-1.086,2.034-1.669
				c0.305-0.452,0.526-0.933,0.656-1.434c0.07-0.266,0.125-0.691,0.092-1.141C256.537,485.993,256.146,486.229,255.616,486.488z"/>
			<path style="fill:#4B4B4B;" d="M246.142,482.805c-0.025,0.037-0.408,0.578-0.71,1.408c-0.226,0.621-0.216,1.527-0.216,1.537
				v0.002c0,0.213,0.012,0.423,0.035,0.632c0,0.005,0,0.008,0.001,0.011c0.003,0.027,0.007,0.053,0.009,0.079
				c0.019,0.146,0.043,0.292,0.074,0.439c0.438,0.111,3.049,0.721,5.968,0.314c1.829-0.255,3.219-0.796,4.063-1.204
				c0.7-0.34,1.15-0.647,1.324-0.775c-0.174-0.642-0.651-1.65-1.089-2.279c-1.254-1.79-2.605-2.249-3.299-2.364
				c-0.266-0.042-0.477-0.068-0.776-0.068c-0.28,0-0.626,0.023-1.09,0.072c-0.464,0.048-0.982,0.17-1.583,0.372
				c-0.842,0.282-1.604,0.724-2.204,1.279l-0.02,0.02C246.541,482.361,246.355,482.533,246.142,482.805z M253.811,482.389
				c0.601,0,1.09,0.487,1.09,1.088c0,0.603-0.489,1.091-1.09,1.091c-0.6,0-1.089-0.488-1.089-1.091
				C252.722,482.876,253.21,482.389,253.811,482.389z M248.66,482.344c0.973,0,1.761,0.789,1.761,1.762
				c0,0.972-0.788,1.759-1.761,1.759c-0.972,0-1.76-0.787-1.76-1.759C246.9,483.133,247.688,482.344,248.66,482.344z"/>
		</g>
	</g>
</g>
</svg>
